NotoSerifNyiakengPuachueHmong-Medium.ufo
<glyph name="ma-hmnp" format="2">
	<unicode hex="1E100"/>
	<advance width="653"/>
	<outline>
		<contour>
			<point x="81" y="0" type="line"/>
			<point x="145" y="0" type="line"/>
			<point x="145" y="475" type="line" smooth="yes"/>
			<point x="145" y="541"/>
			<point x="171" y="567"/>
			<point x="247" y="567" type="curve" smooth="yes"/>
			<point x="361" y="567" type="line" smooth="yes"/>
			<point x="418" y="567"/>
			<point x="445" y="568"/>
			<point x="471" y="571" type="curve"/>
			<point x="471" y="566" type="line"/>
			<point x="449" y="554"/>
			<point x="433" y="529"/>
			<point x="433" y="489" type="curve" smooth="yes"/>
			<point x="433" y="443"/>
			<point x="456" y="390"/>
			<point x="481" y="335" type="curve" smooth="yes"/>
			<point x="506" y="280"/>
			<point x="529" y="223"/>
			<point x="529" y="174" type="curve" smooth="yes"/>
			<point x="529" y="121"/>
			<point x="507" y="108"/>
			<point x="436" y="108" type="curve" smooth="yes"/>
			<point x="358" y="108"/>
			<point x="337" y="123"/>
			<point x="337" y="156" type="curve" smooth="yes"/>
			<point x="337" y="190"/>
			<point x="364" y="199"/>
			<point x="425" y="199" type="curve"/>
			<point x="425" y="256"/>
			<point x="408" y="288"/>
			<point x="367" y="288" type="curve" smooth="yes"/>
			<point x="322" y="288"/>
			<point x="278" y="245"/>
			<point x="278" y="150" type="curve" smooth="yes"/>
			<point x="278" y="49"/>
			<point x="325" y="-10"/>
			<point x="435" y="-10" type="curve" smooth="yes"/>
			<point x="540" y="-10"/>
			<point x="594" y="44"/>
			<point x="594" y="159" type="curve" smooth="yes"/>
			<point x="594" y="237"/>
			<point x="566" y="308"/>
			<point x="538" y="369" type="curve" smooth="yes"/>
			<point x="515" y="419"/>
			<point x="497" y="463"/>
			<point x="497" y="503" type="curve" smooth="yes"/>
			<point x="497" y="549"/>
			<point x="519" y="566"/>
			<point x="572" y="575" type="curve"/>
			<point x="572" y="680" type="line"/>
			<point x="258" y="680" type="line" smooth="yes"/>
			<point x="129" y="680"/>
			<point x="81" y="626"/>
			<point x="81" y="480" type="curve" smooth="yes"/>
		</contour>
	</outline>
	<anchor name="top" x="337" y="680"/>
</glyph>
<glyph name="tsa-hmnp" format="2">
	<unicode hex="1E101"/>
	<advance width="696"/>
	<outline>
		<contour>
			<point x="346" y="-10" type="curve" smooth="yes"/>
			<point x="550" y="-10"/>
			<point x="617" y="38"/>
			<point x="617" y="218" type="curve" smooth="yes"/>
			<point x="617" y="502" type="line" smooth="yes"/>
			<point x="617" y="634"/>
			<point x="570" y="691"/>
			<point x="470" y="691" type="curve" smooth="yes"/>
			<point x="400" y="691"/>
			<point x="363" y="663"/>
			<point x="346" y="605" type="curve"/>
			<point x="342" y="605" type="line"/>
			<point x="324" y="663"/>
			<point x="282" y="691"/>
			<point x="212" y="691" type="curve" smooth="yes"/>
			<point x="117" y="691"/>
			<point x="64" y="637"/>
			<point x="64" y="529" type="curve" smooth="yes"/>
			<point x="64" y="443"/>
			<point x="101" y="392"/>
			<point x="155" y="392" type="curve" smooth="yes"/>
			<point x="196" y="392"/>
			<point x="217" y="422"/>
			<point x="217" y="482" type="curve"/>
			<point x="145" y="482"/>
			<point x="123" y="494"/>
			<point x="123" y="526" type="curve" smooth="yes"/>
			<point x="123" y="560"/>
			<point x="149" y="573"/>
			<point x="214" y="573" type="curve" smooth="yes"/>
			<point x="294" y="573"/>
			<point x="312" y="554"/>
			<point x="312" y="486" type="curve" smooth="yes"/>
			<point x="312" y="50" type="line"/>
			<point x="376" y="50" type="line"/>
			<point x="376" y="486" type="line" smooth="yes"/>
			<point x="376" y="553"/>
			<point x="396" y="573"/>
			<point x="463" y="573" type="curve" smooth="yes"/>
			<point x="532" y="573"/>
			<point x="553" y="553"/>
			<point x="553" y="484" type="curve" smooth="yes"/>
			<point x="553" y="223" type="line" smooth="yes"/>
			<point x="553" y="128"/>
			<point x="512" y="108"/>
			<point x="345" y="108" type="curve" smooth="yes"/>
			<point x="176" y="108"/>
			<point x="133" y="130"/>
			<point x="133" y="214" type="curve" smooth="yes"/>
			<point x="133" y="236"/>
			<point x="135" y="251"/>
			<point x="141" y="269" type="curve"/>
			<point x="135" y="272"/>
			<point x="130" y="273"/>
			<point x="124" y="273" type="curve" smooth="yes"/>
			<point x="91" y="273"/>
			<point x="70" y="232"/>
			<point x="70" y="168" type="curve" smooth="yes"/>
			<point x="70" y="42"/>
			<point x="148" y="-10"/>
		</contour>
	</outline>
	<anchor name="top" x="340" y="680"/>
</glyph>
<glyph name="nta-hmnp" format="2">
	<unicode hex="1E102"/>
	<advance width="703"/>
	<outline>
		<contour>
			<point x="83" y="0" type="line"/>
			<point x="147" y="0" type="line"/>
			<point x="147" y="553" type="line"/>
			<point x="158" y="553" type="line" smooth="yes"/>
			<point x="179" y="553"/>
			<point x="187" y="540"/>
			<point x="197" y="510" type="curve" smooth="yes"/>
			<point x="322" y="126" type="line" smooth="yes"/>
			<point x="357" y="18"/>
			<point x="392" y="-10"/>
			<point x="481" y="-10" type="curve" smooth="yes"/>
			<point x="582" y="-10"/>
			<point x="626" y="40"/>
			<point x="626" y="188" type="curve" smooth="yes"/>
			<point x="626" y="511" type="line" smooth="yes"/>
			<point x="626" y="634"/>
			<point x="580" y="691"/>
			<point x="486" y="691" type="curve" smooth="yes"/>
			<point x="393" y="691"/>
			<point x="345" y="635"/>
			<point x="345" y="532" type="curve" smooth="yes"/>
			<point x="345" y="447"/>
			<point x="377" y="392"/>
			<point x="429" y="392" type="curve" smooth="yes"/>
			<point x="467" y="392"/>
			<point x="487" y="422"/>
			<point x="487" y="482" type="curve"/>
			<point x="426" y="482"/>
			<point x="404" y="494"/>
			<point x="404" y="526" type="curve" smooth="yes"/>
			<point x="404" y="559"/>
			<point x="428" y="573"/>
			<point x="483" y="573" type="curve" smooth="yes"/>
			<point x="543" y="573"/>
			<point x="561" y="556"/>
			<point x="561" y="503" type="curve" smooth="yes"/>
			<point x="561" y="193" type="line" smooth="yes"/>
			<point x="561" y="128"/>
			<point x="540" y="108"/>
			<point x="475" y="108" type="curve" smooth="yes"/>
			<point x="412" y="108"/>
			<point x="392" y="124"/>
			<point x="370" y="192" type="curve" smooth="yes"/>
			<point x="243" y="582" type="line" smooth="yes"/>
			<point x="215" y="667"/>
			<point x="198" y="680"/>
			<point x="141" y="680" type="curve" smooth="yes"/>
			<point x="83" y="680" type="line"/>
		</contour>
	</outline>
	<anchor name="top" x="358" y="680"/>
</glyph>
<glyph name="ta-hmnp" format="2">
	<unicode hex="1E103"/>
	<advance width="658"/>
	<outline>
		<contour>
			<point x="349" y="-10" type="curve" smooth="yes"/>
			<point x="522" y="-10"/>
			<point x="583" y="46"/>
			<point x="583" y="208" type="curve" smooth="yes"/>
			<point x="583" y="511" type="line" smooth="yes"/>
			<point x="583" y="633"/>
			<point x="538" y="691"/>
			<point x="444" y="691" type="curve" smooth="yes"/>
			<point x="352" y="691"/>
			<point x="302" y="636"/>
			<point x="302" y="527" type="curve" smooth="yes"/>
			<point x="302" y="442"/>
			<point x="334" y="389"/>
			<point x="385" y="389" type="curve" smooth="yes"/>
			<point x="425" y="389"/>
			<point x="444" y="420"/>
			<point x="444" y="482" type="curve"/>
			<point x="382" y="482"/>
			<point x="361" y="494"/>
			<point x="361" y="526" type="curve" smooth="yes"/>
			<point x="361" y="559"/>
			<point x="385" y="573"/>
			<point x="441" y="573" type="curve" smooth="yes"/>
			<point x="501" y="573"/>
			<point x="518" y="556"/>
			<point x="518" y="503" type="curve" smooth="yes"/>
			<point x="518" y="219" type="line" smooth="yes"/>
			<point x="518" y="132"/>
			<point x="483" y="108"/>
			<point x="349" y="108" type="curve" smooth="yes"/>
			<point x="215" y="108"/>
			<point x="181" y="131"/>
			<point x="181" y="219" type="curve" smooth="yes"/>
			<point x="181" y="562" type="line" smooth="yes"/>
			<point x="181" y="656"/>
			<point x="164" y="691"/>
			<point x="112" y="691" type="curve" smooth="yes"/>
			<point x="67" y="691"/>
			<point x="40" y="655"/>
			<point x="40" y="572" type="curve"/>
			<point x="98" y="572"/>
			<point x="117" y="562"/>
			<point x="117" y="506" type="curve" smooth="yes"/>
			<point x="117" y="208" type="line" smooth="yes"/>
			<point x="117" y="46"/>
			<point x="177" y="-10"/>
		</contour>
	</outline>
	<anchor name="top" x="339" y="680"/>
</glyph>
<glyph name="ha-hmnp" format="2">
	<unicode hex="1E104"/>
	<advance width="695"/>
	<outline>
		<contour>
			<point x="225" y="-10" type="curve" smooth="yes"/>
			<point x="330" y="-10"/>
			<point x="382" y="46"/>
			<point x="382" y="175" type="curve" smooth="yes"/>
			<point x="382" y="486" type="line" smooth="yes"/>
			<point x="382" y="554"/>
			<point x="401" y="573"/>
			<point x="466" y="573" type="curve" smooth="yes"/>
			<point x="532" y="573"/>
			<point x="550" y="554"/>
			<point x="550" y="483" type="curve" smooth="yes"/>
			<point x="550" y="0" type="line"/>
			<point x="614" y="0" type="line"/>
			<point x="614" y="504" type="line" smooth="yes"/>
			<point x="614" y="634"/>
			<point x="569" y="691"/>
			<point x="470" y="691" type="curve" smooth="yes"/>
			<point x="407" y="691"/>
			<point x="369" y="661"/>
			<point x="353" y="605" type="curve"/>
			<point x="348" y="605" type="line"/>
			<point x="330" y="663"/>
			<point x="285" y="691"/>
			<point x="216" y="691" type="curve" smooth="yes"/>
			<point x="119" y="691"/>
			<point x="64" y="638"/>
			<point x="64" y="532" type="curve" smooth="yes"/>
			<point x="64" y="441"/>
			<point x="103" y="394"/>
			<point x="155" y="394" type="curve" smooth="yes"/>
			<point x="196" y="394"/>
			<point x="216" y="424"/>
			<point x="216" y="482" type="curve"/>
			<point x="145" y="482"/>
			<point x="123" y="493"/>
			<point x="123" y="527" type="curve" smooth="yes"/>
			<point x="123" y="560"/>
			<point x="148" y="573"/>
			<point x="221" y="573" type="curve" smooth="yes"/>
			<point x="299" y="573"/>
			<point x="318" y="555"/>
			<point x="318" y="486" type="curve" smooth="yes"/>
			<point x="318" y="193" type="line" smooth="yes"/>
			<point x="318" y="125"/>
			<point x="297" y="108"/>
			<point x="220" y="108" type="curve" smooth="yes"/>
			<point x="148" y="108"/>
			<point x="123" y="120"/>
			<point x="123" y="155" type="curve" smooth="yes"/>
			<point x="123" y="188"/>
			<point x="146" y="199"/>
			<point x="216" y="199" type="curve"/>
			<point x="216" y="257"/>
			<point x="197" y="287"/>
			<point x="157" y="287" type="curve" smooth="yes"/>
			<point x="104" y="287"/>
			<point x="64" y="241"/>
			<point x="64" y="148" type="curve" smooth="yes"/>
			<point x="64" y="44"/>
			<point x="116" y="-10"/>
		</contour>
	</outline>
	<anchor name="top" x="340" y="680"/>
</glyph>
<glyph name="na-hmnp" format="2">
	<unicode hex="1E105"/>
	<advance width="722"/>
	<outline>
		<contour>
			<point x="225" y="-10" type="curve" smooth="yes"/>
			<point x="306" y="-10"/>
			<point x="346" y="21"/>
			<point x="374" y="148" type="curve" smooth="yes"/>
			<point x="454" y="511" type="line" smooth="yes"/>
			<point x="464" y="558"/>
			<point x="478" y="573"/>
			<point x="521" y="573" type="curve" smooth="yes"/>
			<point x="564" y="573"/>
			<point x="578" y="556"/>
			<point x="578" y="508" type="curve" smooth="yes"/>
			<point x="578" y="0" type="line"/>
			<point x="642" y="0" type="line"/>
			<point x="642" y="519" type="line" smooth="yes"/>
			<point x="642" y="645"/>
			<point x="610" y="691"/>
			<point x="529" y="691" type="curve" smooth="yes"/>
			<point x="453" y="691"/>
			<point x="420" y="661"/>
			<point x="396" y="552" type="curve" smooth="yes"/>
			<point x="315" y="183" type="line" smooth="yes"/>
			<point x="302" y="123"/>
			<point x="278" y="108"/>
			<point x="226" y="108" type="curve" smooth="yes"/>
			<point x="167" y="108"/>
			<point x="142" y="133"/>
			<point x="142" y="184" type="curve" smooth="yes"/>
			<point x="142" y="239"/>
			<point x="176" y="277"/>
			<point x="255" y="282" type="curve"/>
			<point x="255" y="400" type="line"/>
			<point x="174" y="427"/>
			<point x="128" y="464"/>
			<point x="128" y="520" type="curve" smooth="yes"/>
			<point x="128" y="568"/>
			<point x="167" y="575"/>
			<point x="265" y="575" type="curve"/>
			<point x="265" y="651"/>
			<point x="237" y="691"/>
			<point x="182" y="691" type="curve" smooth="yes"/>
			<point x="115" y="691"/>
			<point x="66" y="639"/>
			<point x="66" y="525" type="curve" smooth="yes"/>
			<point x="66" y="427"/>
			<point x="109" y="357"/>
			<point x="167" y="321" type="curve"/>
			<point x="167" y="316" type="line"/>
			<point x="107" y="290"/>
			<point x="76" y="239"/>
			<point x="76" y="154" type="curve" smooth="yes"/>
			<point x="76" y="57"/>
			<point x="120" y="-10"/>
		</contour>
	</outline>
	<anchor name="top" x="367" y="680"/>
</glyph>
<glyph name="xa-hmnp" format="2">
	<unicode hex="1E106"/>
	<advance width="691"/>
	<outline>
		<contour>
			<point x="83" y="0" type="line"/>
			<point x="147" y="0" type="line"/>
			<point x="147" y="172" type="line" smooth="yes"/>
			<point x="147" y="221"/>
			<point x="167" y="240"/>
			<point x="232" y="240" type="curve" smooth="yes"/>
			<point x="300" y="240"/>
			<point x="319" y="219"/>
			<point x="319" y="165" type="curve" smooth="yes"/>
			<point x="319" y="140" type="line" smooth="yes"/>
			<point x="319" y="40"/>
			<point x="357" y="-10"/>
			<point x="465" y="-10" type="curve" smooth="yes"/>
			<point x="578" y="-10"/>
			<point x="613" y="45"/>
			<point x="613" y="170" type="curve" smooth="yes"/>
			<point x="613" y="511" type="line" smooth="yes"/>
			<point x="613" y="633"/>
			<point x="568" y="691"/>
			<point x="472" y="691" type="curve" smooth="yes"/>
			<point x="382" y="691"/>
			<point x="333" y="636"/>
			<point x="333" y="529" type="curve" smooth="yes"/>
			<point x="333" y="448"/>
			<point x="367" y="395"/>
			<point x="417" y="395" type="curve" smooth="yes"/>
			<point x="455" y="395"/>
			<point x="476" y="425"/>
			<point x="476" y="483" type="curve"/>
			<point x="413" y="483"/>
			<point x="392" y="495"/>
			<point x="392" y="527" type="curve" smooth="yes"/>
			<point x="392" y="559"/>
			<point x="416" y="573"/>
			<point x="471" y="573" type="curve" smooth="yes"/>
			<point x="531" y="573"/>
			<point x="549" y="557"/>
			<point x="549" y="504" type="curve" smooth="yes"/>
			<point x="549" y="189" type="line" smooth="yes"/>
			<point x="549" y="129"/>
			<point x="533" y="108"/>
			<point x="463" y="108" type="curve" smooth="yes"/>
			<point x="393" y="108"/>
			<point x="377" y="129"/>
			<point x="377" y="191" type="curve" smooth="yes"/>
			<point x="377" y="219" type="line" smooth="yes"/>
			<point x="377" y="314"/>
			<point x="333" y="358"/>
			<point x="256" y="358" type="curve" smooth="yes"/>
			<point x="195" y="358"/>
			<point x="163" y="330"/>
			<point x="150" y="285" type="curve"/>
			<point x="145" y="285" type="line"/>
			<point x="147" y="331"/>
			<point x="147" y="376"/>
			<point x="147" y="415" type="curve" smooth="yes"/>
			<point x="147" y="680" type="line"/>
			<point x="83" y="680" type="line"/>
		</contour>
	</outline>
	<anchor name="top" x="327" y="680"/>
</glyph>
<glyph name="nka-hmnp" format="2">
	<unicode hex="1E107"/>
	<advance width="722"/>
	<outline>
		<contour>
			<point x="177" y="-10" type="curve" smooth="yes"/>
			<point x="260" y="-10"/>
			<point x="298" y="42"/>
			<point x="298" y="160" type="curve" smooth="yes"/>
			<point x="298" y="704" type="line" smooth="yes"/>
			<point x="298" y="799"/>
			<point x="278" y="834"/>
			<point x="227" y="834" type="curve" smooth="yes"/>
			<point x="180" y="834"/>
			<point x="158" y="796"/>
			<point x="158" y="719" type="curve"/>
			<point x="220" y="719"/>
			<point x="236" y="705"/>
			<point x="236" y="653" type="curve" smooth="yes"/>
			<point x="236" y="168" type="line" smooth="yes"/>
			<point x="236" y="119"/>
			<point x="219" y="101"/>
			<point x="173" y="101" type="curve" smooth="yes"/>
			<point x="129" y="101"/>
			<point x="112" y="119"/>
			<point x="112" y="166" type="curve" smooth="yes"/>
			<point x="112" y="222"/>
			<point x="136" y="245"/>
			<point x="217" y="262" type="curve" smooth="yes"/>
			<point x="491" y="319" type="line" smooth="yes"/>
			<point x="603" y="342"/>
			<point x="642" y="395"/>
			<point x="642" y="524" type="curve" smooth="yes"/>
			<point x="642" y="644"/>
			<point x="608" y="691"/>
			<point x="522" y="691" type="curve" smooth="yes"/>
			<point x="438" y="691"/>
			<point x="401" y="639"/>
			<point x="401" y="520" type="curve" smooth="yes"/>
			<point x="401" y="160" type="line" smooth="yes"/>
			<point x="401" y="36"/>
			<point x="436" y="-10"/>
			<point x="532" y="-10" type="curve" smooth="yes"/>
			<point x="614" y="-10"/>
			<point x="655" y="36"/>
			<point x="655" y="127" type="curve" smooth="yes"/>
			<point x="655" y="188"/>
			<point x="636" y="228"/>
			<point x="605" y="228" type="curve" smooth="yes"/>
			<point x="599" y="228"/>
			<point x="594" y="227"/>
			<point x="587" y="224" type="curve"/>
			<point x="593" y="209"/>
			<point x="595" y="189"/>
			<point x="595" y="166" type="curve" smooth="yes"/>
			<point x="595" y="118"/>
			<point x="579" y="103"/>
			<point x="531" y="103" type="curve" smooth="yes"/>
			<point x="479" y="103"/>
			<point x="462" y="119"/>
			<point x="462" y="170" type="curve" smooth="yes"/>
			<point x="462" y="512" type="line" smooth="yes"/>
			<point x="462" y="562"/>
			<point x="478" y="580"/>
			<point x="524" y="580" type="curve" smooth="yes"/>
			<point x="567" y="580"/>
			<point x="584" y="562"/>
			<point x="584" y="514" type="curve" smooth="yes"/>
			<point x="584" y="457"/>
			<point x="561" y="435"/>
			<point x="480" y="418" type="curve" smooth="yes"/>
			<point x="206" y="361" type="line" smooth="yes"/>
			<point x="92" y="337"/>
			<point x="54" y="285"/>
			<point x="54" y="155" type="curve" smooth="yes"/>
			<point x="54" y="37"/>
			<point x="89" y="-10"/>
		</contour>
	</outline>
	<anchor name="top" x="516" y="680"/>
</glyph>
<glyph name="ca-hmnp" format="2">
	<unicode hex="1E108"/>
	<advance width="672"/>
	<outline>
		<contour>
			<point x="228" y="-10" type="curve" smooth="yes"/>
			<point x="353" y="-10"/>
			<point x="408" y="49"/>
			<point x="408" y="234" type="curve" smooth="yes"/>
			<point x="408" y="405"/>
			<point x="347" y="475"/>
			<point x="243" y="475" type="curve" smooth="yes"/>
			<point x="150" y="475" type="line"/>
			<point x="150" y="680" type="line"/>
			<point x="86" y="680" type="line"/>
			<point x="86" y="362" type="line"/>
			<point x="240" y="362" type="line" smooth="yes"/>
			<point x="312" y="362"/>
			<point x="345" y="342"/>
			<point x="345" y="233" type="curve" smooth="yes"/>
			<point x="345" y="123"/>
			<point x="320" y="105"/>
			<point x="229" y="105" type="curve" smooth="yes"/>
			<point x="147" y="105"/>
			<point x="126" y="117"/>
			<point x="126" y="151" type="curve" smooth="yes"/>
			<point x="126" y="185"/>
			<point x="148" y="195"/>
			<point x="218" y="195" type="curve"/>
			<point x="218" y="254"/>
			<point x="201" y="286"/>
			<point x="157" y="286" type="curve" smooth="yes"/>
			<point x="103" y="286"/>
			<point x="67" y="235"/>
			<point x="67" y="148" type="curve" smooth="yes"/>
			<point x="67" y="48"/>
			<point x="119" y="-10"/>
		</contour>
		<contour>
			<point x="528" y="0" type="line"/>
			<point x="592" y="0" type="line"/>
			<point x="592" y="502" type="line" smooth="yes"/>
			<point x="592" y="635"/>
			<point x="548" y="691"/>
			<point x="441" y="691" type="curve" smooth="yes"/>
			<point x="334" y="691"/>
			<point x="290" y="635"/>
			<point x="290" y="502" type="curve" smooth="yes"/>
			<point x="290" y="404" type="line"/>
			<point x="354" y="404" type="line"/>
			<point x="354" y="484" type="line" smooth="yes"/>
			<point x="354" y="553"/>
			<point x="373" y="573"/>
			<point x="441" y="573" type="curve" smooth="yes"/>
			<point x="509" y="573"/>
			<point x="528" y="553"/>
			<point x="528" y="484" type="curve" smooth="yes"/>
		</contour>
	</outline>
	<anchor name="top" x="340" y="680"/>
</glyph>
<glyph name="la-hmnp" format="2">
	<unicode hex="1E109"/>
	<advance width="588"/>
	<outline>
		<contour>
			<point x="295" y="-10" type="curve" smooth="yes"/>
			<point x="471" y="-10"/>
			<point x="525" y="40"/>
			<point x="525" y="154" type="curve" smooth="yes"/>
			<point x="525" y="234"/>
			<point x="495" y="277"/>
			<point x="444" y="277" type="curve" smooth="yes"/>
			<point x="402" y="277"/>
			<point x="381" y="249"/>
			<point x="381" y="194" type="curve"/>
			<point x="446" y="194"/>
			<point x="468" y="184"/>
			<point x="468" y="155" type="curve" smooth="yes"/>
			<point x="468" y="117"/>
			<point x="439" y="106"/>
			<point x="295" y="106" type="curve" smooth="yes"/>
			<point x="145" y="106"/>
			<point x="118" y="118"/>
			<point x="118" y="169" type="curve" smooth="yes"/>
			<point x="118" y="219"/>
			<point x="143" y="246"/>
			<point x="286" y="310" type="curve" smooth="yes"/>
			<point x="392" y="357"/>
			<point x="451" y="389"/>
			<point x="480" y="425" type="curve" smooth="yes"/>
			<point x="503" y="454"/>
			<point x="513" y="495"/>
			<point x="513" y="554" type="curve" smooth="yes"/>
			<point x="513" y="680" type="line"/>
			<point x="100" y="680" type="line"/>
			<point x="75" y="612" type="line"/>
			<point x="75" y="567" type="line"/>
			<point x="449" y="567" type="line"/>
			<point x="449" y="550" type="line" smooth="yes"/>
			<point x="449" y="506"/>
			<point x="434" y="492"/>
			<point x="305" y="435" type="curve" smooth="yes"/>
			<point x="172" y="376"/>
			<point x="131" y="349"/>
			<point x="102" y="315" type="curve" smooth="yes"/>
			<point x="72" y="280"/>
			<point x="57" y="231"/>
			<point x="57" y="169" type="curve" smooth="yes"/>
			<point x="57" y="39"/>
			<point x="117" y="-10"/>
		</contour>
	</outline>
	<anchor name="top" x="295" y="680"/>
</glyph>
<glyph name="sa-hmnp" format="2">
	<unicode hex="1E10A"/>
	<advance width="713"/>
	<outline>
		<contour>
			<point x="375" y="-10" type="curve" smooth="yes"/>
			<point x="577" y="-10"/>
			<point x="632" y="46"/>
			<point x="632" y="208" type="curve" smooth="yes"/>
			<point x="632" y="680" type="line"/>
			<point x="568" y="680" type="line"/>
			<point x="568" y="222" type="line" smooth="yes"/>
			<point x="568" y="128"/>
			<point x="535" y="108"/>
			<point x="375" y="108" type="curve" smooth="yes"/>
			<point x="215" y="108"/>
			<point x="181" y="128"/>
			<point x="181" y="222" type="curve" smooth="yes"/>
			<point x="181" y="562" type="line" smooth="yes"/>
			<point x="181" y="656"/>
			<point x="164" y="691"/>
			<point x="112" y="691" type="curve" smooth="yes"/>
			<point x="67" y="691"/>
			<point x="40" y="655"/>
			<point x="40" y="572" type="curve"/>
			<point x="98" y="572"/>
			<point x="117" y="562"/>
			<point x="117" y="506" type="curve" smooth="yes"/>
			<point x="117" y="208" type="line" smooth="yes"/>
			<point x="117" y="46"/>
			<point x="175" y="-10"/>
		</contour>
		<contour>
			<point x="343" y="47" type="line"/>
			<point x="407" y="47" type="line"/>
			<point x="407" y="680" type="line"/>
			<point x="343" y="680" type="line"/>
		</contour>
	</outline>
	<anchor name="top" x="375" y="680"/>
</glyph>
<glyph name="za-hmnp" format="2">
	<unicode hex="1E10B"/>
	<advance width="636"/>
	<outline>
		<contour>
			<point x="314" y="-10" type="curve" smooth="yes"/>
			<point x="498" y="-10"/>
			<point x="555" y="47"/>
			<point x="555" y="215" type="curve" smooth="yes"/>
			<point x="555" y="680" type="line"/>
			<point x="491" y="680" type="line"/>
			<point x="491" y="580" type="line" smooth="yes"/>
			<point x="491" y="538"/>
			<point x="475" y="520"/>
			<point x="444" y="520" type="curve" smooth="yes"/>
			<point x="407" y="520"/>
			<point x="375" y="551"/>
			<point x="334" y="599" type="curve" smooth="yes"/>
			<point x="292" y="649"/>
			<point x="253" y="691"/>
			<point x="194" y="691" type="curve" smooth="yes"/>
			<point x="124" y="691"/>
			<point x="74" y="637"/>
			<point x="74" y="530" type="curve" smooth="yes"/>
			<point x="74" y="458"/>
			<point x="93" y="414"/>
			<point x="128" y="414" type="curve" smooth="yes"/>
			<point x="133" y="414"/>
			<point x="138" y="415"/>
			<point x="144" y="418" type="curve"/>
			<point x="139" y="436"/>
			<point x="136" y="456"/>
			<point x="136" y="483" type="curve" smooth="yes"/>
			<point x="136" y="535"/>
			<point x="153" y="573"/>
			<point x="189" y="573" type="curve" smooth="yes"/>
			<point x="222" y="573"/>
			<point x="250" y="544"/>
			<point x="283" y="503" type="curve" smooth="yes"/>
			<point x="329" y="446"/>
			<point x="365" y="414"/>
			<point x="414" y="414" type="curve" smooth="yes"/>
			<point x="447" y="414"/>
			<point x="478" y="427"/>
			<point x="489" y="468" type="curve"/>
			<point x="494" y="468" type="line"/>
			<point x="491" y="426"/>
			<point x="491" y="393"/>
			<point x="491" y="360" type="curve" smooth="yes"/>
			<point x="491" y="221" type="line" smooth="yes"/>
			<point x="491" y="130"/>
			<point x="459" y="108"/>
			<point x="315" y="108" type="curve" smooth="yes"/>
			<point x="158" y="108"/>
			<point x="123" y="120"/>
			<point x="123" y="162" type="curve" smooth="yes"/>
			<point x="123" y="181"/>
			<point x="133" y="196"/>
			<point x="153" y="202" type="curve" smooth="yes"/>
			<point x="175" y="209"/>
			<point x="213" y="212"/>
			<point x="281" y="212" type="curve"/>
			<point x="281" y="272"/>
			<point x="254" y="301"/>
			<point x="196" y="301" type="curve" smooth="yes"/>
			<point x="115" y="301"/>
			<point x="64" y="246"/>
			<point x="64" y="164" type="curve" smooth="yes"/>
			<point x="64" y="39"/>
			<point x="129" y="-10"/>
		</contour>
	</outline>
	<anchor name="top" x="312" y="680"/>
</glyph>
<glyph name="nca-hmnp" format="2">
	<unicode hex="1E10C"/>
	<advance width="675"/>
	<outline>
		<contour>
			<point x="83" y="0" type="line"/>
			<point x="147" y="0" type="line"/>
			<point x="147" y="541" type="line"/>
			<point x="152" y="541" type="line"/>
			<point x="262" y="388" type="line"/>
			<point x="323" y="388" type="line"/>
			<point x="380" y="499" type="line" smooth="yes"/>
			<point x="410" y="558"/>
			<point x="427" y="573"/>
			<point x="469" y="573" type="curve" smooth="yes"/>
			<point x="517" y="573"/>
			<point x="533" y="556"/>
			<point x="533" y="500" type="curve" smooth="yes"/>
			<point x="533" y="181" type="line" smooth="yes"/>
			<point x="533" y="123"/>
			<point x="517" y="108"/>
			<point x="452" y="108" type="curve" smooth="yes"/>
			<point x="387" y="108"/>
			<point x="365" y="121"/>
			<point x="365" y="155" type="curve" smooth="yes"/>
			<point x="365" y="188"/>
			<point x="387" y="199"/>
			<point x="448" y="199" type="curve"/>
			<point x="448" y="256"/>
			<point x="430" y="287"/>
			<point x="392" y="287" type="curve" smooth="yes"/>
			<point x="343" y="287"/>
			<point x="306" y="236"/>
			<point x="306" y="151" type="curve" smooth="yes"/>
			<point x="306" y="48"/>
			<point x="353" y="-10"/>
			<point x="453" y="-10" type="curve" smooth="yes"/>
			<point x="552" y="-10"/>
			<point x="598" y="46"/>
			<point x="598" y="174" type="curve" smooth="yes"/>
			<point x="598" y="511" type="line" smooth="yes"/>
			<point x="598" y="645"/>
			<point x="567" y="691"/>
			<point x="486" y="691" type="curve" smooth="yes"/>
			<point x="430" y="691"/>
			<point x="400" y="667"/>
			<point x="356" y="579" type="curve" smooth="yes"/>
			<point x="312" y="492" type="line"/>
			<point x="308" y="492" type="line"/>
			<point x="176" y="680" type="line"/>
			<point x="83" y="680" type="line"/>
		</contour>
	</outline>
	<anchor name="top" x="333" y="680"/>
</glyph>
<glyph name="ntsa-hmnp" format="2">
	<unicode hex="1E10D"/>
	<advance width="599"/>
	<outline>
		<contour>
			<point x="81" y="0" type="line"/>
			<point x="145" y="0" type="line"/>
			<point x="145" y="35" type="line" smooth="yes"/>
			<point x="145" y="93"/>
			<point x="178" y="120"/>
			<point x="310" y="120" type="curve" smooth="yes"/>
			<point x="443" y="120"/>
			<point x="475" y="95"/>
			<point x="475" y="35" type="curve" smooth="yes"/>
			<point x="475" y="0" type="line"/>
			<point x="539" y="0" type="line"/>
			<point x="539" y="49" type="line" smooth="yes"/>
			<point x="539" y="194"/>
			<point x="463" y="238"/>
			<point x="326" y="238" type="curve" smooth="yes"/>
			<point x="207" y="238"/>
			<point x="167" y="207"/>
			<point x="148" y="145" type="curve"/>
			<point x="142" y="145" type="line"/>
			<point x="145" y="196"/>
			<point x="145" y="218"/>
			<point x="145" y="269" type="curve" smooth="yes"/>
			<point x="145" y="469" type="line" smooth="yes"/>
			<point x="145" y="551"/>
			<point x="181" y="573"/>
			<point x="311" y="573" type="curve" smooth="yes"/>
			<point x="444" y="573"/>
			<point x="473" y="542"/>
			<point x="473" y="465" type="curve" smooth="yes"/>
			<point x="473" y="446"/>
			<point x="471" y="431"/>
			<point x="466" y="413" type="curve"/>
			<point x="473" y="410"/>
			<point x="477" y="409"/>
			<point x="484" y="409" type="curve" smooth="yes"/>
			<point x="514" y="409"/>
			<point x="536" y="448"/>
			<point x="536" y="512" type="curve" smooth="yes"/>
			<point x="536" y="633"/>
			<point x="477" y="691"/>
			<point x="314" y="691" type="curve" smooth="yes"/>
			<point x="144" y="691"/>
			<point x="81" y="647"/>
			<point x="81" y="473" type="curve" smooth="yes"/>
		</contour>
	</outline>
	<anchor name="top" x="309" y="680"/>
</glyph>
<glyph name="ka-hmnp" format="2">
	<unicode hex="1E10E"/>
	<advance width="599"/>
	<outline>
		<contour>
			<point x="301" y="-10" type="curve" smooth="yes"/>
			<point x="470" y="-10"/>
			<point x="524" y="44"/>
			<point x="524" y="208" type="curve" smooth="yes"/>
			<point x="524" y="472" type="line" smooth="yes"/>
			<point x="524" y="632"/>
			<point x="469" y="691"/>
			<point x="321" y="691" type="curve" smooth="yes"/>
			<point x="219" y="691"/>
			<point x="170" y="663"/>
			<point x="150" y="591" type="curve"/>
			<point x="146" y="591" type="line"/>
			<point x="148" y="624"/>
			<point x="148" y="648"/>
			<point x="148" y="667" type="curve" smooth="yes"/>
			<point x="148" y="680" type="line"/>
			<point x="84" y="680" type="line"/>
			<point x="84" y="417" type="line"/>
			<point x="148" y="417" type="line"/>
			<point x="148" y="467" type="line" smooth="yes"/>
			<point x="148" y="547"/>
			<point x="188" y="573"/>
			<point x="304" y="573" type="curve" smooth="yes"/>
			<point x="425" y="573"/>
			<point x="460" y="550"/>
			<point x="460" y="472" type="curve" smooth="yes"/>
			<point x="460" y="218" type="line" smooth="yes"/>
			<point x="460" y="132"/>
			<point x="426" y="108"/>
			<point x="300" y="108" type="curve" smooth="yes"/>
			<point x="172" y="108"/>
			<point x="134" y="133"/>
			<point x="134" y="215" type="curve" smooth="yes"/>
			<point x="134" y="235"/>
			<point x="137" y="250"/>
			<point x="143" y="269" type="curve"/>
			<point x="136" y="272"/>
			<point x="131" y="273"/>
			<point x="125" y="273" type="curve" smooth="yes"/>
			<point x="92" y="273"/>
			<point x="71" y="232"/>
			<point x="71" y="169" type="curve" smooth="yes"/>
			<point x="71" y="40"/>
			<point x="136" y="-10"/>
		</contour>
	</outline>
	<anchor name="top" x="302" y="680"/>
</glyph>
<glyph name="da-hmnp" format="2">
	<unicode hex="1E10F"/>
	<advance width="629"/>
	<outline>
		<contour>
			<point x="292" y="-10" type="curve" smooth="yes"/>
			<point x="396" y="-10"/>
			<point x="441" y="20"/>
			<point x="455" y="95" type="curve"/>
			<point x="459" y="95" type="line"/>
			<point x="470" y="22"/>
			<point x="493" y="-10"/>
			<point x="532" y="-10" type="curve" smooth="yes"/>
			<point x="564" y="-10"/>
			<point x="587" y="23"/>
			<point x="591" y="93" type="curve"/>
			<point x="526" y="104"/>
			<point x="511" y="130"/>
			<point x="511" y="214" type="curve" smooth="yes"/>
			<point x="511" y="267" type="line"/>
			<point x="447" y="267" type="line"/>
			<point x="447" y="215" type="line" smooth="yes"/>
			<point x="447" y="127"/>
			<point x="417" y="108"/>
			<point x="294" y="108" type="curve" smooth="yes"/>
			<point x="180" y="108"/>
			<point x="140" y="136"/>
			<point x="140" y="216" type="curve" smooth="yes"/>
			<point x="140" y="475" type="line" smooth="yes"/>
			<point x="140" y="551"/>
			<point x="177" y="573"/>
			<point x="300" y="573" type="curve" smooth="yes"/>
			<point x="428" y="573"/>
			<point x="463" y="547"/>
			<point x="463" y="465" type="curve" smooth="yes"/>
			<point x="463" y="446"/>
			<point x="461" y="431"/>
			<point x="456" y="413" type="curve"/>
			<point x="462" y="410"/>
			<point x="467" y="409"/>
			<point x="473" y="409" type="curve" smooth="yes"/>
			<point x="505" y="409"/>
			<point x="526" y="448"/>
			<point x="526" y="512" type="curve" smooth="yes"/>
			<point x="526" y="637"/>
			<point x="462" y="691"/>
			<point x="301" y="691" type="curve" smooth="yes"/>
			<point x="128" y="691"/>
			<point x="76" y="645"/>
			<point x="76" y="480" type="curve" smooth="yes"/>
			<point x="76" y="209" type="line" smooth="yes"/>
			<point x="76" y="46"/>
			<point x="134" y="-10"/>
		</contour>
	</outline>
	<anchor name="top" x="297" y="680"/>
</glyph>
<glyph name="nya-hmnp" format="2">
	<unicode hex="1E110"/>
	<advance width="618"/>
	<outline>
		<contour>
			<point x="81" y="0" type="line"/>
			<point x="145" y="0" type="line"/>
			<point x="145" y="68" type="line" smooth="yes"/>
			<point x="145" y="105"/>
			<point x="158" y="118"/>
			<point x="192" y="118" type="curve" smooth="yes"/>
			<point x="226" y="118"/>
			<point x="248" y="101"/>
			<point x="302" y="55" type="curve" smooth="yes"/>
			<point x="354" y="10"/>
			<point x="384" y="-10"/>
			<point x="437" y="-10" type="curve" smooth="yes"/>
			<point x="514" y="-10"/>
			<point x="554" y="42"/>
			<point x="554" y="148" type="curve" smooth="yes"/>
			<point x="554" y="239"/>
			<point x="521" y="286"/>
			<point x="466" y="286" type="curve" smooth="yes"/>
			<point x="424" y="286"/>
			<point x="405" y="257"/>
			<point x="405" y="199" type="curve"/>
			<point x="472" y="199"/>
			<point x="495" y="189"/>
			<point x="495" y="151" type="curve" smooth="yes"/>
			<point x="495" y="120"/>
			<point x="480" y="105"/>
			<point x="445" y="105" type="curve" smooth="yes"/>
			<point x="405" y="105"/>
			<point x="384" y="122"/>
			<point x="329" y="170" type="curve" smooth="yes"/>
			<point x="278" y="215"/>
			<point x="256" y="233"/>
			<point x="218" y="233" type="curve" smooth="yes"/>
			<point x="182" y="233"/>
			<point x="160" y="217"/>
			<point x="148" y="181" type="curve"/>
			<point x="143" y="181" type="line"/>
			<point x="145" y="202"/>
			<point x="145" y="218"/>
			<point x="145" y="285" type="curve" smooth="yes"/>
			<point x="145" y="469" type="line" smooth="yes"/>
			<point x="145" y="551"/>
			<point x="182" y="573"/>
			<point x="315" y="573" type="curve" smooth="yes"/>
			<point x="450" y="573"/>
			<point x="479" y="542"/>
			<point x="479" y="465" type="curve" smooth="yes"/>
			<point x="479" y="446"/>
			<point x="478" y="431"/>
			<point x="472" y="413" type="curve"/>
			<point x="479" y="410"/>
			<point x="484" y="409"/>
			<point x="490" y="409" type="curve" smooth="yes"/>
			<point x="520" y="409"/>
			<point x="542" y="448"/>
			<point x="542" y="513" type="curve" smooth="yes"/>
			<point x="542" y="633"/>
			<point x="483" y="691"/>
			<point x="315" y="691" type="curve" smooth="yes"/>
			<point x="145" y="691"/>
			<point x="81" y="646"/>
			<point x="81" y="473" type="curve" smooth="yes"/>
		</contour>
	</outline>
	<anchor name="top" x="313" y="680"/>
</glyph>
<glyph name="nra-hmnp" format="2">
	<unicode hex="1E111"/>
	<advance width="595"/>
	<outline>
		<contour>
			<point x="308" y="-10" type="curve" smooth="yes"/>
			<point x="477" y="-10"/>
			<point x="538" y="37"/>
			<point x="538" y="158" type="curve" smooth="yes"/>
			<point x="538" y="238"/>
			<point x="505" y="286"/>
			<point x="448" y="286" type="curve" smooth="yes"/>
			<point x="409" y="286"/>
			<point x="389" y="257"/>
			<point x="389" y="199" type="curve"/>
			<point x="456" y="199"/>
			<point x="479" y="188"/>
			<point x="479" y="160" type="curve" smooth="yes"/>
			<point x="479" y="122"/>
			<point x="438" y="108"/>
			<point x="307" y="108" type="curve" smooth="yes"/>
			<point x="169" y="108"/>
			<point x="129" y="127"/>
			<point x="129" y="185" type="curve" smooth="yes"/>
			<point x="129" y="252"/>
			<point x="189" y="285"/>
			<point x="316" y="293" type="curve"/>
			<point x="316" y="402" type="line"/>
			<point x="194" y="408"/>
			<point x="135" y="436"/>
			<point x="135" y="498" type="curve" smooth="yes"/>
			<point x="135" y="554"/>
			<point x="172" y="573"/>
			<point x="306" y="573" type="curve" smooth="yes"/>
			<point x="433" y="573"/>
			<point x="471" y="562"/>
			<point x="471" y="524" type="curve" smooth="yes"/>
			<point x="471" y="495"/>
			<point x="450" y="482"/>
			<point x="379" y="482" type="curve"/>
			<point x="379" y="426"/>
			<point x="401" y="395"/>
			<point x="441" y="395" type="curve" smooth="yes"/>
			<point x="498" y="395"/>
			<point x="530" y="445"/>
			<point x="530" y="522" type="curve" smooth="yes"/>
			<point x="530" y="640"/>
			<point x="461" y="691"/>
			<point x="303" y="691" type="curve" smooth="yes"/>
			<point x="145" y="691"/>
			<point x="71" y="631"/>
			<point x="71" y="503" type="curve" smooth="yes"/>
			<point x="71" y="412"/>
			<point x="105" y="358"/>
			<point x="179" y="329" type="curve"/>
			<point x="179" y="325" type="line"/>
			<point x="101" y="297"/>
			<point x="65" y="249"/>
			<point x="65" y="162" type="curve" smooth="yes"/>
			<point x="65" y="40"/>
			<point x="133" y="-10"/>
		</contour>
	</outline>
	<anchor name="top" x="307" y="680"/>
</glyph>
<glyph name="va-hmnp" format="2">
	<unicode hex="1E112"/>
	<advance width="664"/>
	<outline>
		<contour>
			<point x="225" y="-10" type="curve" smooth="yes"/>
			<point x="330" y="-10"/>
			<point x="382" y="46"/>
			<point x="382" y="175" type="curve" smooth="yes"/>
			<point x="382" y="506" type="line" smooth="yes"/>
			<point x="382" y="637"/>
			<point x="332" y="691"/>
			<point x="220" y="691" type="curve" smooth="yes"/>
			<point x="119" y="691"/>
			<point x="64" y="638"/>
			<point x="64" y="532" type="curve" smooth="yes"/>
			<point x="64" y="441"/>
			<point x="103" y="394"/>
			<point x="155" y="394" type="curve" smooth="yes"/>
			<point x="196" y="394"/>
			<point x="216" y="424"/>
			<point x="216" y="482" type="curve"/>
			<point x="145" y="482"/>
			<point x="123" y="493"/>
			<point x="123" y="526" type="curve" smooth="yes"/>
			<point x="123" y="560"/>
			<point x="148" y="573"/>
			<point x="221" y="573" type="curve" smooth="yes"/>
			<point x="299" y="573"/>
			<point x="318" y="555"/>
			<point x="318" y="486" type="curve" smooth="yes"/>
			<point x="318" y="193" type="line" smooth="yes"/>
			<point x="318" y="125"/>
			<point x="297" y="108"/>
			<point x="221" y="108" type="curve" smooth="yes"/>
			<point x="148" y="108"/>
			<point x="123" y="120"/>
			<point x="123" y="155" type="curve" smooth="yes"/>
			<point x="123" y="188"/>
			<point x="146" y="199"/>
			<point x="216" y="199" type="curve"/>
			<point x="216" y="257"/>
			<point x="197" y="287"/>
			<point x="157" y="287" type="curve" smooth="yes"/>
			<point x="104" y="287"/>
			<point x="64" y="241"/>
			<point x="64" y="148" type="curve" smooth="yes"/>
			<point x="64" y="44"/>
			<point x="116" y="-10"/>
		</contour>
		<contour>
			<point x="365" y="286" type="line"/>
			<point x="561" y="286" type="line"/>
			<point x="561" y="399" type="line"/>
			<point x="365" y="399" type="line"/>
		</contour>
		<contour>
			<point x="517" y="0" type="line"/>
			<point x="581" y="0" type="line"/>
			<point x="581" y="680" type="line"/>
			<point x="517" y="680" type="line"/>
		</contour>
	</outline>
	<anchor name="top" x="357" y="680"/>
</glyph>
<glyph name="ntxa-hmnp" format="2">
	<unicode hex="1E113"/>
	<advance width="607"/>
	<outline>
		<contour>
			<point x="305" y="-10" type="curve" smooth="yes"/>
			<point x="484" y="-10"/>
			<point x="546" y="40"/>
			<point x="546" y="156" type="curve" smooth="yes"/>
			<point x="546" y="231"/>
			<point x="514" y="277"/>
			<point x="461" y="277" type="curve" smooth="yes"/>
			<point x="420" y="277"/>
			<point x="399" y="248"/>
			<point x="399" y="193" type="curve"/>
			<point x="467" y="193"/>
			<point x="489" y="183"/>
			<point x="489" y="154" type="curve" smooth="yes"/>
			<point x="489" y="116"/>
			<point x="454" y="106"/>
			<point x="306" y="106" type="curve" smooth="yes"/>
			<point x="154" y="106"/>
			<point x="122" y="115"/>
			<point x="122" y="156" type="curve" smooth="yes"/>
			<point x="122" y="197"/>
			<point x="152" y="214"/>
			<point x="291" y="277" type="curve" smooth="yes"/>
			<point x="413" y="332"/>
			<point x="471" y="363"/>
			<point x="502" y="400" type="curve" smooth="yes"/>
			<point x="529" y="433"/>
			<point x="540" y="472"/>
			<point x="540" y="519" type="curve" smooth="yes"/>
			<point x="540" y="634"/>
			<point x="474" y="691"/>
			<point x="305" y="691" type="curve" smooth="yes"/>
			<point x="143" y="691"/>
			<point x="71" y="638"/>
			<point x="71" y="527" type="curve" smooth="yes"/>
			<point x="71" y="450"/>
			<point x="102" y="404"/>
			<point x="155" y="404" type="curve" smooth="yes"/>
			<point x="196" y="404"/>
			<point x="218" y="432"/>
			<point x="218" y="488" type="curve"/>
			<point x="149" y="488"/>
			<point x="128" y="498"/>
			<point x="128" y="527" type="curve" smooth="yes"/>
			<point x="128" y="565"/>
			<point x="164" y="575"/>
			<point x="299" y="575" type="curve" smooth="yes"/>
			<point x="450" y="575"/>
			<point x="479" y="565"/>
			<point x="479" y="519" type="curve" smooth="yes"/>
			<point x="479" y="478"/>
			<point x="452" y="463"/>
			<point x="319" y="403" type="curve" smooth="yes"/>
			<point x="187" y="344"/>
			<point x="138" y="318"/>
			<point x="105" y="281" type="curve" smooth="yes"/>
			<point x="74" y="246"/>
			<point x="61" y="205"/>
			<point x="61" y="152" type="curve" smooth="yes"/>
			<point x="61" y="39"/>
			<point x="130" y="-10"/>
		</contour>
	</outline>
	<anchor name="top" x="302" y="680"/>
</glyph>
<glyph name="txa-hmnp" format="2">
	<unicode hex="1E114"/>
	<advance width="678"/>
	<outline>
		<contour>
			<point x="85" y="0" type="curve"/>
			<point x="149" y="0" type="line"/>
			<point x="225" y="229"/>
			<point x="363" y="444"/>
			<point x="521" y="532" type="curve"/>
			<point x="525" y="527" type="line"/>
			<point x="470" y="400"/>
			<point x="449" y="277"/>
			<point x="449" y="178" type="curve" smooth="yes"/>
			<point x="449" y="50"/>
			<point x="479" y="-10"/>
			<point x="548" y="-10" type="curve" smooth="yes"/>
			<point x="596" y="-10"/>
			<point x="622" y="24"/>
			<point x="622" y="104" type="curve"/>
			<point x="539" y="104"/>
			<point x="515" y="117"/>
			<point x="515" y="211" type="curve" smooth="yes"/>
			<point x="515" y="309"/>
			<point x="553" y="466"/>
			<point x="617" y="573" type="curve"/>
			<point x="617" y="668" type="line"/>
			<point x="593" y="689" type="line"/>
			<point x="551" y="676"/>
			<point x="498" y="652"/>
			<point x="436" y="601" type="curve" smooth="yes"/>
			<point x="333" y="517"/>
			<point x="264" y="402"/>
			<point x="197" y="251" type="curve"/>
			<point x="191" y="251" type="line"/>
			<point x="216" y="399"/>
			<point x="225" y="475"/>
			<point x="225" y="549" type="curve" smooth="yes"/>
			<point x="225" y="653"/>
			<point x="194" y="691"/>
			<point x="138" y="691" type="curve" smooth="yes"/>
			<point x="87" y="691"/>
			<point x="56" y="653"/>
			<point x="56" y="577" type="curve"/>
			<point x="135" y="577"/>
			<point x="157" y="560"/>
			<point x="157" y="502" type="curve" smooth="yes"/>
			<point x="157" y="426"/>
			<point x="129" y="238"/>
		</contour>
	</outline>
	<anchor name="top" x="353" y="680"/>
</glyph>
<glyph name="fa-hmnp" format="2">
	<unicode hex="1E115"/>
	<advance width="612"/>
	<outline>
		<contour>
			<point x="73" y="0" type="line"/>
			<point x="137" y="0" type="line"/>
			<point x="137" y="141" type="line"/>
			<point x="142" y="141" type="line"/>
			<point x="208" y="36"/>
			<point x="286" y="-10"/>
			<point x="389" y="-10" type="curve" smooth="yes"/>
			<point x="503" y="-10"/>
			<point x="547" y="43"/>
			<point x="547" y="150" type="curve" smooth="yes"/>
			<point x="547" y="222"/>
			<point x="526" y="262"/>
			<point x="495" y="262" type="curve" smooth="yes"/>
			<point x="490" y="262"/>
			<point x="485" y="261"/>
			<point x="478" y="258" type="curve"/>
			<point x="483" y="241"/>
			<point x="485" y="225"/>
			<point x="485" y="203" type="curve" smooth="yes"/>
			<point x="485" y="135"/>
			<point x="468" y="108"/>
			<point x="386" y="108" type="curve" smooth="yes"/>
			<point x="309" y="108"/>
			<point x="234" y="130"/>
			<point x="154" y="199" type="curve"/>
			<point x="167" y="215"/>
			<point x="196" y="234"/>
			<point x="292" y="276" type="curve" smooth="yes"/>
			<point x="418" y="331"/>
			<point x="477" y="361"/>
			<point x="509" y="398" type="curve" smooth="yes"/>
			<point x="537" y="431"/>
			<point x="546" y="472"/>
			<point x="546" y="520" type="curve" smooth="yes"/>
			<point x="546" y="634"/>
			<point x="480" y="691"/>
			<point x="338" y="691" type="curve" smooth="yes"/>
			<point x="226" y="691"/>
			<point x="169" y="664"/>
			<point x="149" y="591" type="curve"/>
			<point x="145" y="591" type="line"/>
			<point x="146" y="617"/>
			<point x="147" y="643"/>
			<point x="147" y="666" type="curve" smooth="yes"/>
			<point x="147" y="680" type="line"/>
			<point x="83" y="680" type="line"/>
			<point x="83" y="422" type="line"/>
			<point x="147" y="422" type="line"/>
			<point x="147" y="469" type="line" smooth="yes"/>
			<point x="147" y="549"/>
			<point x="188" y="575"/>
			<point x="322" y="575" type="curve" smooth="yes"/>
			<point x="457" y="575"/>
			<point x="485" y="565"/>
			<point x="485" y="520" type="curve" smooth="yes"/>
			<point x="485" y="478"/>
			<point x="463" y="464"/>
			<point x="321" y="403" type="curve" smooth="yes"/>
			<point x="201" y="351"/>
			<point x="143" y="318"/>
			<point x="111" y="282" type="curve" smooth="yes"/>
			<point x="79" y="246"/>
			<point x="73" y="200"/>
			<point x="73" y="129" type="curve" smooth="yes"/>
		</contour>
	</outline>
	<anchor name="top" x="314" y="680"/>
</glyph>
<glyph name="ra-hmnp" format="2">
	<unicode hex="1E116"/>
	<advance width="655"/>
	<outline>
		<contour>
			<point x="342" y="-10" type="curve" smooth="yes"/>
			<point x="520" y="-10"/>
			<point x="579" y="46"/>
			<point x="579" y="208" type="curve" smooth="yes"/>
			<point x="579" y="511" type="line" smooth="yes"/>
			<point x="579" y="633"/>
			<point x="535" y="691"/>
			<point x="441" y="691" type="curve" smooth="yes"/>
			<point x="349" y="691"/>
			<point x="299" y="636"/>
			<point x="299" y="527" type="curve" smooth="yes"/>
			<point x="299" y="443"/>
			<point x="331" y="389"/>
			<point x="382" y="389" type="curve" smooth="yes"/>
			<point x="422" y="389"/>
			<point x="441" y="420"/>
			<point x="441" y="482" type="curve"/>
			<point x="379" y="482"/>
			<point x="358" y="494"/>
			<point x="358" y="526" type="curve" smooth="yes"/>
			<point x="358" y="559"/>
			<point x="382" y="573"/>
			<point x="438" y="573" type="curve" smooth="yes"/>
			<point x="497" y="573"/>
			<point x="515" y="556"/>
			<point x="515" y="503" type="curve" smooth="yes"/>
			<point x="515" y="219" type="line" smooth="yes"/>
			<point x="515" y="129"/>
			<point x="477" y="108"/>
			<point x="337" y="108" type="curve" smooth="yes"/>
			<point x="198" y="108"/>
			<point x="165" y="131"/>
			<point x="165" y="176" type="curve" smooth="yes"/>
			<point x="165" y="225"/>
			<point x="203" y="245"/>
			<point x="266" y="247" type="curve"/>
			<point x="266" y="370" type="line"/>
			<point x="159" y="425"/>
			<point x="108" y="474"/>
			<point x="108" y="529" type="curve" smooth="yes"/>
			<point x="108" y="571"/>
			<point x="135" y="583"/>
			<point x="221" y="583" type="curve"/>
			<point x="221" y="647"/>
			<point x="199" y="691"/>
			<point x="147" y="691" type="curve" smooth="yes"/>
			<point x="87" y="691"/>
			<point x="48" y="644"/>
			<point x="48" y="545" type="curve" smooth="yes"/>
			<point x="48" y="501"/>
			<point x="55" y="464"/>
			<point x="67" y="432" type="curve" smooth="yes"/>
			<point x="88" y="377"/>
			<point x="126" y="334"/>
			<point x="184" y="292" type="curve"/>
			<point x="184" y="286" type="line"/>
			<point x="134" y="266"/>
			<point x="102" y="227"/>
			<point x="102" y="151" type="curve" smooth="yes"/>
			<point x="102" y="37"/>
			<point x="171" y="-10"/>
		</contour>
	</outline>
	<anchor name="top" x="318" y="680"/>
</glyph>
<glyph name="qa-hmnp" format="2">
	<unicode hex="1E117"/>
	<advance width="623"/>
	<outline>
		<contour>
			<point x="119" y="-236" type="curve" smooth="yes"/>
			<point x="172" y="-236"/>
			<point x="199" y="-188"/>
			<point x="199" y="-106" type="curve" smooth="yes"/>
			<point x="199" y="567" type="line"/>
			<point x="399" y="567" type="line" smooth="yes"/>
			<point x="458" y="567"/>
			<point x="470" y="553"/>
			<point x="470" y="510" type="curve" smooth="yes"/>
			<point x="470" y="479"/>
			<point x="458" y="421"/>
			<point x="442" y="357" type="curve" smooth="yes"/>
			<point x="422" y="275"/>
			<point x="402" y="186"/>
			<point x="402" y="127" type="curve" smooth="yes"/>
			<point x="402" y="75"/>
			<point x="411" y="45"/>
			<point x="427" y="23" type="curve" smooth="yes"/>
			<point x="443" y="2"/>
			<point x="463" y="-10"/>
			<point x="496" y="-10" type="curve" smooth="yes"/>
			<point x="540" y="-10"/>
			<point x="568" y="26"/>
			<point x="568" y="104" type="curve"/>
			<point x="494" y="104"/>
			<point x="471" y="118"/>
			<point x="471" y="168" type="curve" smooth="yes"/>
			<point x="471" y="196"/>
			<point x="483" y="252"/>
			<point x="499" y="318" type="curve" smooth="yes"/>
			<point x="518" y="399"/>
			<point x="539" y="492"/>
			<point x="539" y="554" type="curve" smooth="yes"/>
			<point x="539" y="647"/>
			<point x="509" y="680"/>
			<point x="428" y="680" type="curve" smooth="yes"/>
			<point x="58" y="680" type="line"/>
			<point x="34" y="612" type="line"/>
			<point x="34" y="567" type="line"/>
			<point x="135" y="567" type="line"/>
			<point x="135" y="-34" type="line" smooth="yes"/>
			<point x="135" y="-114"/>
			<point x="111" y="-125"/>
			<point x="48" y="-125" type="curve"/>
			<point x="48" y="-200"/>
			<point x="74" y="-236"/>
		</contour>
	</outline>
	<anchor name="top" x="301" y="680"/>
</glyph>
<glyph name="ya-hmnp" format="2">
	<unicode hex="1E118"/>
	<advance width="663"/>
	<outline>
		<contour>
			<point x="350" y="-10" type="curve" smooth="yes"/>
			<point x="529" y="-10"/>
			<point x="610" y="35"/>
			<point x="610" y="187" type="curve" smooth="yes"/>
			<point x="610" y="273"/>
			<point x="584" y="327"/>
			<point x="515" y="372" type="curve"/>
			<point x="564" y="406"/>
			<point x="590" y="451"/>
			<point x="590" y="526" type="curve" smooth="yes"/>
			<point x="590" y="630"/>
			<point x="538" y="691"/>
			<point x="441" y="691" type="curve" smooth="yes"/>
			<point x="349" y="691"/>
			<point x="291" y="632"/>
			<point x="291" y="523" type="curve" smooth="yes"/>
			<point x="291" y="452"/>
			<point x="313" y="405"/>
			<point x="360" y="372" type="curve"/>
			<point x="299" y="336"/>
			<point x="270" y="296"/>
			<point x="270" y="250" type="curve" smooth="yes"/>
			<point x="270" y="215"/>
			<point x="286" y="199"/>
			<point x="320" y="197" type="curve"/>
			<point x="325" y="243"/>
			<point x="356" y="278"/>
			<point x="442" y="325" type="curve"/>
			<point x="517" y="280"/>
			<point x="544" y="247"/>
			<point x="544" y="197" type="curve" smooth="yes"/>
			<point x="544" y="125"/>
			<point x="494" y="108"/>
			<point x="350" y="108" type="curve" smooth="yes"/>
			<point x="185" y="108"/>
			<point x="145" y="132"/>
			<point x="145" y="220" type="curve" smooth="yes"/>
			<point x="145" y="680" type="line"/>
			<point x="81" y="680" type="line"/>
			<point x="81" y="211" type="line" smooth="yes"/>
			<point x="81" y="43"/>
			<point x="150" y="-10"/>
		</contour>
		<contour>
			<point x="439" y="416" type="curve"/>
			<point x="379" y="448"/>
			<point x="352" y="475"/>
			<point x="352" y="517" type="curve" smooth="yes"/>
			<point x="352" y="558"/>
			<point x="377" y="576"/>
			<point x="440" y="576" type="curve" smooth="yes"/>
			<point x="503" y="576"/>
			<point x="529" y="558"/>
			<point x="529" y="520" type="curve" smooth="yes"/>
			<point x="529" y="483"/>
			<point x="503" y="451"/>
		</contour>
	</outline>
	<anchor name="top" x="341" y="680"/>
</glyph>
<glyph name="nqa-hmnp" format="2">
	<unicode hex="1E119"/>
	<advance width="645"/>
	<outline>
		<contour>
			<point x="322" y="-10" type="curve" smooth="yes"/>
			<point x="505" y="-10"/>
			<point x="564" y="43"/>
			<point x="564" y="208" type="curve" smooth="yes"/>
			<point x="564" y="680" type="line"/>
			<point x="500" y="680" type="line"/>
			<point x="500" y="219" type="line" smooth="yes"/>
			<point x="500" y="129"/>
			<point x="466" y="108"/>
			<point x="326" y="108" type="curve" smooth="yes"/>
			<point x="166" y="108"/>
			<point x="128" y="120"/>
			<point x="128" y="164" type="curve" smooth="yes"/>
			<point x="128" y="199"/>
			<point x="154" y="219"/>
			<point x="237" y="261" type="curve" smooth="yes"/>
			<point x="304" y="295"/>
			<point x="336" y="317"/>
			<point x="361" y="349" type="curve" smooth="yes"/>
			<point x="389" y="386"/>
			<point x="400" y="429"/>
			<point x="400" y="503" type="curve" smooth="yes"/>
			<point x="400" y="639"/>
			<point x="348" y="691"/>
			<point x="236" y="691" type="curve" smooth="yes"/>
			<point x="127" y="691"/>
			<point x="77" y="634"/>
			<point x="77" y="534" type="curve" smooth="yes"/>
			<point x="77" y="462"/>
			<point x="109" y="413"/>
			<point x="163" y="413" type="curve" smooth="yes"/>
			<point x="205" y="413"/>
			<point x="224" y="442"/>
			<point x="224" y="499" type="curve"/>
			<point x="154" y="499"/>
			<point x="133" y="507"/>
			<point x="133" y="536" type="curve" smooth="yes"/>
			<point x="133" y="566"/>
			<point x="160" y="579"/>
			<point x="232" y="579" type="curve" smooth="yes"/>
			<point x="313" y="579"/>
			<point x="337" y="559"/>
			<point x="337" y="503" type="curve" smooth="yes"/>
			<point x="337" y="446"/>
			<point x="320" y="421"/>
			<point x="226" y="371" type="curve" smooth="yes"/>
			<point x="148" y="329"/>
			<point x="120" y="307"/>
			<point x="100" y="278" type="curve" smooth="yes"/>
			<point x="78" y="247"/>
			<point x="67" y="213"/>
			<point x="67" y="161" type="curve" smooth="yes"/>
			<point x="67" y="34"/>
			<point x="130" y="-10"/>
		</contour>
	</outline>
	<anchor name="top" x="332" y="680"/>
</glyph>
<glyph name="pa-hmnp" format="2">
	<unicode hex="1E11A"/>
	<advance width="600"/>
	<outline>
		<contour>
			<point x="294" y="-10" type="curve" smooth="yes"/>
			<point x="469" y="-10"/>
			<point x="525" y="46"/>
			<point x="525" y="207" type="curve" smooth="yes"/>
			<point x="525" y="476" type="line" smooth="yes"/>
			<point x="525" y="627"/>
			<point x="480" y="680"/>
			<point x="347" y="680" type="curve" smooth="yes"/>
			<point x="93" y="680" type="line"/>
			<point x="69" y="612" type="line"/>
			<point x="69" y="567" type="line"/>
			<point x="225" y="567" type="line"/>
			<point x="227" y="563" type="line"/>
			<point x="178" y="495"/>
			<point x="162" y="453"/>
			<point x="162" y="405" type="curve" smooth="yes"/>
			<point x="162" y="343"/>
			<point x="198" y="301"/>
			<point x="249" y="301" type="curve" smooth="yes"/>
			<point x="296" y="301"/>
			<point x="321" y="338"/>
			<point x="321" y="398" type="curve"/>
			<point x="256" y="398"/>
			<point x="233" y="406"/>
			<point x="233" y="441" type="curve" smooth="yes"/>
			<point x="233" y="469"/>
			<point x="250" y="503"/>
			<point x="294" y="567" type="curve"/>
			<point x="358" y="567" type="line" smooth="yes"/>
			<point x="432" y="567"/>
			<point x="460" y="543"/>
			<point x="460" y="474" type="curve" smooth="yes"/>
			<point x="460" y="219" type="line" smooth="yes"/>
			<point x="460" y="132"/>
			<point x="424" y="108"/>
			<point x="294" y="108" type="curve" smooth="yes"/>
			<point x="161" y="108"/>
			<point x="125" y="133"/>
			<point x="125" y="215" type="curve" smooth="yes"/>
			<point x="125" y="235"/>
			<point x="127" y="251"/>
			<point x="133" y="269" type="curve"/>
			<point x="126" y="272"/>
			<point x="122" y="273"/>
			<point x="115" y="273" type="curve" smooth="yes"/>
			<point x="83" y="273"/>
			<point x="62" y="232"/>
			<point x="62" y="169" type="curve" smooth="yes"/>
			<point x="62" y="40"/>
			<point x="128" y="-10"/>
		</contour>
	</outline>
	<anchor name="top" x="289" y="680"/>
</glyph>
<glyph name="xya-hmnp" format="2">
	<unicode hex="1E11B"/>
	<advance width="659"/>
	<outline>
		<contour>
			<point x="228" y="-10" type="curve" smooth="yes"/>
			<point x="339" y="-10"/>
			<point x="384" y="50"/>
			<point x="384" y="150" type="curve" smooth="yes"/>
			<point x="384" y="246"/>
			<point x="340" y="287"/>
			<point x="295" y="287" type="curve" smooth="yes"/>
			<point x="254" y="287"/>
			<point x="237" y="255"/>
			<point x="237" y="199" type="curve"/>
			<point x="299" y="199"/>
			<point x="325" y="190"/>
			<point x="325" y="156" type="curve" smooth="yes"/>
			<point x="325" y="123"/>
			<point x="303" y="108"/>
			<point x="230" y="108" type="curve" smooth="yes"/>
			<point x="155" y="108"/>
			<point x="133" y="123"/>
			<point x="133" y="188" type="curve" smooth="yes"/>
			<point x="133" y="285"/>
			<point x="180" y="407"/>
			<point x="289" y="567" type="curve"/>
			<point x="412" y="567" type="line" smooth="yes"/>
			<point x="486" y="567"/>
			<point x="514" y="543"/>
			<point x="514" y="474" type="curve" smooth="yes"/>
			<point x="514" y="0" type="line"/>
			<point x="578" y="0" type="line"/>
			<point x="578" y="476" type="line" smooth="yes"/>
			<point x="578" y="627"/>
			<point x="533" y="680"/>
			<point x="401" y="680" type="curve" smooth="yes"/>
			<point x="109" y="680" type="line"/>
			<point x="84" y="612" type="line"/>
			<point x="84" y="567" type="line"/>
			<point x="210" y="567" type="line"/>
			<point x="210" y="563" type="line"/>
			<point x="124" y="432"/>
			<point x="68" y="300"/>
			<point x="68" y="176" type="curve" smooth="yes"/>
			<point x="68" y="47"/>
			<point x="122" y="-10"/>
		</contour>
	</outline>
	<anchor name="top" x="340" y="680"/>
</glyph>
<glyph name="npa-hmnp" format="2">
	<unicode hex="1E11C"/>
	<advance width="622"/>
	<outline>
		<contour>
			<point x="78" y="0" type="line"/>
			<point x="142" y="0" type="line"/>
			<point x="142" y="36" type="line" smooth="yes"/>
			<point x="142" y="94"/>
			<point x="183" y="120"/>
			<point x="309" y="120" type="curve" smooth="yes"/>
			<point x="437" y="120"/>
			<point x="477" y="93"/>
			<point x="477" y="36" type="curve" smooth="yes"/>
			<point x="477" y="0" type="line"/>
			<point x="541" y="0" type="line"/>
			<point x="541" y="483" type="line" smooth="yes"/>
			<point x="541" y="641"/>
			<point x="476" y="691"/>
			<point x="308" y="691" type="curve" smooth="yes"/>
			<point x="142" y="691"/>
			<point x="73" y="644"/>
			<point x="73" y="520" type="curve" smooth="yes"/>
			<point x="73" y="443"/>
			<point x="107" y="392"/>
			<point x="159" y="392" type="curve" smooth="yes"/>
			<point x="203" y="392"/>
			<point x="223" y="423"/>
			<point x="223" y="482" type="curve"/>
			<point x="154" y="482"/>
			<point x="132" y="492"/>
			<point x="132" y="523" type="curve" smooth="yes"/>
			<point x="132" y="561"/>
			<point x="163" y="573"/>
			<point x="307" y="573" type="curve" smooth="yes"/>
			<point x="452" y="573"/>
			<point x="477" y="551"/>
			<point x="477" y="473" type="curve" smooth="yes"/>
			<point x="477" y="249" type="line" smooth="yes"/>
			<point x="477" y="203"/>
			<point x="478" y="181"/>
			<point x="480" y="144" type="curve"/>
			<point x="474" y="144" type="line"/>
			<point x="453" y="210"/>
			<point x="399" y="238"/>
			<point x="309" y="238" type="curve" smooth="yes"/>
			<point x="220" y="238"/>
			<point x="166" y="211"/>
			<point x="145" y="144" type="curve"/>
			<point x="140" y="144" type="line"/>
			<point x="142" y="180"/>
			<point x="142" y="200"/>
			<point x="142" y="235" type="curve" smooth="yes"/>
			<point x="142" y="267" type="line"/>
			<point x="78" y="267" type="line"/>
		</contour>
	</outline>
	<anchor name="top" x="303" y="680"/>
</glyph>
<glyph name="dla-hmnp" format="2">
	<unicode hex="1E11D"/>
	<advance width="704"/>
	<outline>
		<contour>
			<point x="83" y="0" type="line"/>
			<point x="147" y="0" type="line"/>
			<point x="147" y="32" type="line" smooth="yes"/>
			<point x="147" y="223"/>
			<point x="332" y="507"/>
			<point x="507" y="556" type="curve"/>
			<point x="509" y="552" type="line"/>
			<point x="494" y="536"/>
			<point x="486" y="514"/>
			<point x="486" y="485" type="curve" smooth="yes"/>
			<point x="486" y="439"/>
			<point x="509" y="387"/>
			<point x="533" y="333" type="curve" smooth="yes"/>
			<point x="558" y="276"/>
			<point x="581" y="221"/>
			<point x="581" y="174" type="curve" smooth="yes"/>
			<point x="581" y="121"/>
			<point x="558" y="108"/>
			<point x="487" y="108" type="curve" smooth="yes"/>
			<point x="410" y="108"/>
			<point x="388" y="123"/>
			<point x="388" y="156" type="curve" smooth="yes"/>
			<point x="388" y="190"/>
			<point x="416" y="199"/>
			<point x="477" y="199" type="curve"/>
			<point x="477" y="256"/>
			<point x="460" y="288"/>
			<point x="419" y="288" type="curve" smooth="yes"/>
			<point x="373" y="288"/>
			<point x="330" y="245"/>
			<point x="330" y="150" type="curve" smooth="yes"/>
			<point x="330" y="49"/>
			<point x="376" y="-10"/>
			<point x="487" y="-10" type="curve" smooth="yes"/>
			<point x="592" y="-10"/>
			<point x="646" y="44"/>
			<point x="646" y="160" type="curve" smooth="yes"/>
			<point x="646" y="236"/>
			<point x="618" y="303"/>
			<point x="589" y="366" type="curve" smooth="yes"/>
			<point x="566" y="417"/>
			<point x="549" y="460"/>
			<point x="549" y="500" type="curve" smooth="yes"/>
			<point x="549" y="545"/>
			<point x="571" y="561"/>
			<point x="624" y="572" type="curve"/>
			<point x="624" y="680" type="line"/>
			<point x="586" y="680" type="line" smooth="yes"/>
			<point x="512" y="680"/>
			<point x="454" y="667"/>
			<point x="397" y="625" type="curve" smooth="yes"/>
			<point x="294" y="550"/>
			<point x="205" y="409"/>
			<point x="150" y="262" type="curve"/>
			<point x="145" y="262" type="line"/>
			<point x="147" y="304"/>
			<point x="147" y="325"/>
			<point x="147" y="344" type="curve" smooth="yes"/>
			<point x="147" y="510" type="line" smooth="yes"/>
			<point x="147" y="565"/>
			<point x="165" y="576"/>
			<point x="224" y="576" type="curve"/>
			<point x="224" y="650"/>
			<point x="203" y="691"/>
			<point x="156" y="691" type="curve" smooth="yes"/>
			<point x="102" y="691"/>
			<point x="83" y="653"/>
			<point x="83" y="560" type="curve" smooth="yes"/>
		</contour>
	</outline>
	<anchor name="top" x="351" y="680"/>
</glyph>
<glyph name="npla-hmnp" format="2">
	<unicode hex="1E11E"/>
	<advance width="667"/>
	<outline>
		<contour>
			<point x="81" y="0" type="line"/>
			<point x="145" y="0" type="line"/>
			<point x="145" y="475" type="line" smooth="yes"/>
			<point x="145" y="541"/>
			<point x="171" y="567"/>
			<point x="246" y="567" type="curve" smooth="yes"/>
			<point x="280" y="567" type="line" smooth="yes"/>
			<point x="340" y="567"/>
			<point x="364" y="568"/>
			<point x="389" y="572" type="curve"/>
			<point x="389" y="567" type="line"/>
			<point x="316" y="527"/>
			<point x="286" y="461"/>
			<point x="286" y="353" type="curve" smooth="yes"/>
			<point x="286" y="186" type="line" smooth="yes"/>
			<point x="286" y="42"/>
			<point x="333" y="-10"/>
			<point x="438" y="-10" type="curve" smooth="yes"/>
			<point x="544" y="-10"/>
			<point x="591" y="42"/>
			<point x="591" y="186" type="curve" smooth="yes"/>
			<point x="591" y="368" type="line" smooth="yes"/>
			<point x="591" y="465"/>
			<point x="567" y="525"/>
			<point x="513" y="554" type="curve"/>
			<point x="513" y="558" type="line"/>
			<point x="587" y="585" type="line"/>
			<point x="587" y="680" type="line"/>
			<point x="258" y="680" type="line" smooth="yes"/>
			<point x="129" y="680"/>
			<point x="81" y="626"/>
			<point x="81" y="480" type="curve" smooth="yes"/>
		</contour>
		<contour>
			<point x="438" y="108" type="curve" smooth="yes"/>
			<point x="370" y="108"/>
			<point x="350" y="134"/>
			<point x="350" y="206" type="curve" smooth="yes"/>
			<point x="350" y="362" type="line" smooth="yes"/>
			<point x="350" y="455"/>
			<point x="375" y="498"/>
			<point x="455" y="536" type="curve"/>
			<point x="511" y="502"/>
			<point x="527" y="462"/>
			<point x="527" y="361" type="curve" smooth="yes"/>
			<point x="527" y="206" type="line" smooth="yes"/>
			<point x="527" y="134"/>
			<point x="509" y="108"/>
		</contour>
	</outline>
	<anchor name="top" x="350" y="680"/>
</glyph>
<glyph name="hah-hmnp" format="2">
	<unicode hex="1E11F"/>
	<advance width="653"/>
	<outline>
		<contour>
			<point x="326" y="-10" type="curve" smooth="yes"/>
			<point x="515" y="-10"/>
			<point x="575" y="46"/>
			<point x="575" y="210" type="curve" smooth="yes"/>
			<point x="575" y="502" type="line" smooth="yes"/>
			<point x="575" y="648"/>
			<point x="527" y="691"/>
			<point x="439" y="691" type="curve" smooth="yes"/>
			<point x="377" y="691"/>
			<point x="340" y="665"/>
			<point x="326" y="604" type="curve"/>
			<point x="321" y="604" type="line"/>
			<point x="305" y="665"/>
			<point x="269" y="691"/>
			<point x="203" y="691" type="curve" smooth="yes"/>
			<point x="112" y="691"/>
			<point x="67" y="634"/>
			<point x="67" y="531" type="curve" smooth="yes"/>
			<point x="67" y="446"/>
			<point x="99" y="395"/>
			<point x="147" y="395" type="curve" smooth="yes"/>
			<point x="186" y="395"/>
			<point x="206" y="428"/>
			<point x="206" y="482" type="curve"/>
			<point x="145" y="482"/>
			<point x="126" y="493"/>
			<point x="126" y="525" type="curve" smooth="yes"/>
			<point x="126" y="561"/>
			<point x="150" y="573"/>
			<point x="209" y="573" type="curve" smooth="yes"/>
			<point x="272" y="573"/>
			<point x="291" y="555"/>
			<point x="291" y="492" type="curve" smooth="yes"/>
			<point x="291" y="439" type="line"/>
			<point x="355" y="439" type="line"/>
			<point x="355" y="492" type="line" smooth="yes"/>
			<point x="355" y="554"/>
			<point x="373" y="573"/>
			<point x="431" y="573" type="curve" smooth="yes"/>
			<point x="493" y="573"/>
			<point x="511" y="556"/>
			<point x="511" y="489" type="curve" smooth="yes"/>
			<point x="511" y="216" type="line" smooth="yes"/>
			<point x="511" y="125"/>
			<point x="474" y="108"/>
			<point x="326" y="108" type="curve" smooth="yes"/>
			<point x="155" y="108"/>
			<point x="123" y="121"/>
			<point x="123" y="162" type="curve" smooth="yes"/>
			<point x="123" y="180"/>
			<point x="133" y="194"/>
			<point x="153" y="201" type="curve" smooth="yes"/>
			<point x="178" y="210"/>
			<point x="221" y="212"/>
			<point x="281" y="212" type="curve"/>
			<point x="281" y="271"/>
			<point x="255" y="300"/>
			<point x="197" y="300" type="curve" smooth="yes"/>
			<point x="115" y="300"/>
			<point x="64" y="247"/>
			<point x="64" y="161" type="curve" smooth="yes"/>
			<point x="64" y="35"/>
			<point x="137" y="-10"/>
		</contour>
	</outline>
	<anchor name="top" x="317" y="680"/>
</glyph>
<glyph name="mla-hmnp" format="2">
	<unicode hex="1E120"/>
	<advance width="635"/>
	<outline>
		<contour>
			<point x="211" y="-10" type="curve" smooth="yes"/>
			<point x="272" y="-10"/>
			<point x="308" y="12"/>
			<point x="321" y="80" type="curve"/>
			<point x="327" y="80" type="line"/>
			<point x="339" y="18"/>
			<point x="372" y="-10"/>
			<point x="437" y="-10" type="curve" smooth="yes"/>
			<point x="526" y="-10"/>
			<point x="569" y="43"/>
			<point x="569" y="154" type="curve" smooth="yes"/>
			<point x="569" y="229"/>
			<point x="549" y="273"/>
			<point x="515" y="273" type="curve" smooth="yes"/>
			<point x="510" y="273"/>
			<point x="505" y="272"/>
			<point x="499" y="269" type="curve"/>
			<point x="504" y="251"/>
			<point x="507" y="226"/>
			<point x="507" y="200" type="curve" smooth="yes"/>
			<point x="507" y="132"/>
			<point x="489" y="108"/>
			<point x="431" y="108" type="curve" smooth="yes"/>
			<point x="376" y="108"/>
			<point x="356" y="131"/>
			<point x="356" y="184" type="curve" smooth="yes"/>
			<point x="356" y="267" type="line"/>
			<point x="292" y="267" type="line"/>
			<point x="292" y="184" type="line" smooth="yes"/>
			<point x="292" y="129"/>
			<point x="270" y="108"/>
			<point x="216" y="108" type="curve" smooth="yes"/>
			<point x="160" y="108"/>
			<point x="143" y="129"/>
			<point x="143" y="191" type="curve" smooth="yes"/>
			<point x="143" y="476" type="line" smooth="yes"/>
			<point x="143" y="557"/>
			<point x="174" y="573"/>
			<point x="334" y="573" type="curve" smooth="yes"/>
			<point x="475" y="573"/>
			<point x="506" y="564"/>
			<point x="506" y="524" type="curve" smooth="yes"/>
			<point x="506" y="492"/>
			<point x="485" y="482"/>
			<point x="415" y="482" type="curve"/>
			<point x="415" y="424"/>
			<point x="436" y="392"/>
			<point x="477" y="392" type="curve" smooth="yes"/>
			<point x="530" y="392"/>
			<point x="565" y="442"/>
			<point x="565" y="525" type="curve" smooth="yes"/>
			<point x="565" y="645"/>
			<point x="499" y="691"/>
			<point x="330" y="691" type="curve" smooth="yes"/>
			<point x="135" y="691"/>
			<point x="79" y="639"/>
			<point x="79" y="483" type="curve" smooth="yes"/>
			<point x="79" y="177" type="line" smooth="yes"/>
			<point x="79" y="43"/>
			<point x="115" y="-10"/>
		</contour>
	</outline>
	<anchor name="top" x="322" y="680"/>
</glyph>
<glyph name="pla-hmnp" format="2">
	<unicode hex="1E121"/>
	<advance width="599"/>
	<outline>
		<contour>
			<point x="69" y="0" type="line"/>
			<point x="529" y="0" type="line"/>
			<point x="529" y="223" type="line"/>
			<point x="465" y="223" type="line"/>
			<point x="465" y="113" type="line"/>
			<point x="135" y="113" type="line"/>
			<point x="135" y="138" type="line" smooth="yes"/>
			<point x="135" y="188"/>
			<point x="154" y="198"/>
			<point x="284" y="254" type="curve" smooth="yes"/>
			<point x="411" y="309"/>
			<point x="460" y="340"/>
			<point x="491" y="377" type="curve" smooth="yes"/>
			<point x="521" y="413"/>
			<point x="533" y="460"/>
			<point x="533" y="509" type="curve" smooth="yes"/>
			<point x="533" y="642"/>
			<point x="458" y="691"/>
			<point x="303" y="691" type="curve" smooth="yes"/>
			<point x="142" y="691"/>
			<point x="70" y="638"/>
			<point x="70" y="527" type="curve" smooth="yes"/>
			<point x="70" y="451"/>
			<point x="101" y="404"/>
			<point x="154" y="404" type="curve" smooth="yes"/>
			<point x="196" y="404"/>
			<point x="217" y="432"/>
			<point x="217" y="488" type="curve"/>
			<point x="149" y="488"/>
			<point x="127" y="498"/>
			<point x="127" y="527" type="curve" smooth="yes"/>
			<point x="127" y="565"/>
			<point x="163" y="575"/>
			<point x="302" y="575" type="curve" smooth="yes"/>
			<point x="436" y="575"/>
			<point x="472" y="564"/>
			<point x="472" y="511" type="curve" smooth="yes"/>
			<point x="472" y="471"/>
			<point x="451" y="445"/>
			<point x="303" y="379" type="curve" smooth="yes"/>
			<point x="195" y="331"/>
			<point x="141" y="302"/>
			<point x="109" y="267" type="curve" smooth="yes"/>
			<point x="77" y="232"/>
			<point x="69" y="192"/>
			<point x="69" y="137" type="curve" smooth="yes"/>
		</contour>
	</outline>
	<anchor name="top" x="297" y="680"/>
</glyph>
<glyph name="ga-hmnp" format="2">
	<unicode hex="1E122"/>
	<advance width="590"/>
	<outline>
		<contour>
			<point x="318" y="-10" type="curve" smooth="yes"/>
			<point x="472" y="-10"/>
			<point x="537" y="38"/>
			<point x="537" y="155" type="curve" smooth="yes"/>
			<point x="537" y="238"/>
			<point x="504" y="286"/>
			<point x="449" y="286" type="curve" smooth="yes"/>
			<point x="408" y="286"/>
			<point x="388" y="256"/>
			<point x="388" y="198" type="curve"/>
			<point x="459" y="198"/>
			<point x="478" y="187"/>
			<point x="478" y="159" type="curve" smooth="yes"/>
			<point x="478" y="118"/>
			<point x="432" y="108"/>
			<point x="306" y="108" type="curve" smooth="yes"/>
			<point x="166" y="108"/>
			<point x="129" y="123"/>
			<point x="129" y="182" type="curve" smooth="yes"/>
			<point x="129" y="235"/>
			<point x="160" y="270"/>
			<point x="234" y="309" type="curve" smooth="yes"/>
			<point x="305" y="347"/>
			<point x="382" y="373"/>
			<point x="504" y="396" type="curve"/>
			<point x="504" y="489" type="line"/>
			<point x="339" y="489" type="line" smooth="yes"/>
			<point x="259" y="489"/>
			<point x="219" y="488"/>
			<point x="179" y="485" type="curve"/>
			<point x="179" y="490" type="line"/>
			<point x="334" y="531"/>
			<point x="398" y="572"/>
			<point x="398" y="633" type="curve" smooth="yes"/>
			<point x="398" y="670"/>
			<point x="375" y="692"/>
			<point x="324" y="704" type="curve"/>
			<point x="294" y="614"/>
			<point x="218" y="549"/>
			<point x="76" y="488" type="curve"/>
			<point x="76" y="390" type="line"/>
			<point x="114" y="390" type="line" smooth="yes"/>
			<point x="154" y="390"/>
			<point x="205" y="390"/>
			<point x="272" y="393" type="curve"/>
			<point x="272" y="388" type="line"/>
			<point x="120" y="333"/>
			<point x="61" y="269"/>
			<point x="61" y="163" type="curve" smooth="yes"/>
			<point x="61" y="41"/>
			<point x="123" y="-10"/>
		</contour>
	</outline>
	<anchor name="top" x="296" y="680"/>
</glyph>
<glyph name="rra-hmnp" format="2">
	<unicode hex="1E123"/>
	<advance width="533"/>
	<outline>
		<contour>
			<point x="406" y="-10" type="curve" smooth="yes"/>
			<point x="452" y="-10"/>
			<point x="479" y="25"/>
			<point x="479" y="104" type="curve"/>
			<point x="412" y="104"/>
			<point x="385" y="118"/>
			<point x="385" y="165" type="curve" smooth="yes"/>
			<point x="385" y="191"/>
			<point x="394" y="235"/>
			<point x="408" y="282" type="curve" smooth="yes"/>
			<point x="424" y="335"/>
			<point x="440" y="399"/>
			<point x="440" y="448" type="curve" smooth="yes"/>
			<point x="440" y="543"/>
			<point x="410" y="576"/>
			<point x="307" y="576" type="curve" smooth="yes"/>
			<point x="175" y="576" type="line" smooth="yes"/>
			<point x="123" y="576"/>
			<point x="112" y="583"/>
			<point x="103" y="663" type="curve" smooth="yes"/>
			<point x="101" y="680" type="line"/>
			<point x="54" y="680" type="line"/>
			<point x="54" y="463" type="line"/>
			<point x="298" y="463" type="line" smooth="yes"/>
			<point x="351" y="463"/>
			<point x="369" y="448"/>
			<point x="369" y="406" type="curve" smooth="yes"/>
			<point x="369" y="379"/>
			<point x="360" y="336"/>
			<point x="346" y="289" type="curve" smooth="yes"/>
			<point x="329" y="232"/>
			<point x="314" y="169"/>
			<point x="314" y="121" type="curve" smooth="yes"/>
			<point x="314" y="74"/>
			<point x="323" y="45"/>
			<point x="338" y="23" type="curve" smooth="yes"/>
			<point x="353" y="1"/>
			<point x="375" y="-10"/>
		</contour>
	</outline>
	<anchor name="top" x="242" y="680"/>
</glyph>
<glyph name="a-hmnp" format="2">
	<unicode hex="1E124"/>
	<advance width="477"/>
	<outline>
		<contour>
			<point x="332" y="0" type="line"/>
			<point x="396" y="0" type="line"/>
			<point x="396" y="499" type="line" smooth="yes"/>
			<point x="396" y="634"/>
			<point x="339" y="691"/>
			<point x="218" y="691" type="curve" smooth="yes"/>
			<point x="100" y="691"/>
			<point x="41" y="637"/>
			<point x="41" y="522" type="curve" smooth="yes"/>
			<point x="41" y="438"/>
			<point x="77" y="389"/>
			<point x="131" y="389" type="curve" smooth="yes"/>
			<point x="174" y="389"/>
			<point x="195" y="418"/>
			<point x="195" y="482" type="curve"/>
			<point x="124" y="482"/>
			<point x="100" y="491"/>
			<point x="100" y="523" type="curve" smooth="yes"/>
			<point x="100" y="559"/>
			<point x="129" y="573"/>
			<point x="213" y="573" type="curve" smooth="yes"/>
			<point x="310" y="573"/>
			<point x="332" y="556"/>
			<point x="332" y="488" type="curve" smooth="yes"/>
		</contour>
	</outline>
	<anchor name="top" x="219" y="680"/>
</glyph>
<glyph name="aa-hmnp" format="2">
	<unicode hex="1E125"/>
	<advance width="509"/>
	<outline>
		<contour>
			<point x="266" y="-10" type="curve" smooth="yes"/>
			<point x="379" y="-10"/>
			<point x="428" y="37"/>
			<point x="428" y="139" type="curve" smooth="yes"/>
			<point x="428" y="216"/>
			<point x="395" y="264"/>
			<point x="343" y="264" type="curve" smooth="yes"/>
			<point x="304" y="264"/>
			<point x="284" y="236"/>
			<point x="284" y="180" type="curve"/>
			<point x="351" y="180"/>
			<point x="371" y="170"/>
			<point x="371" y="145" type="curve" smooth="yes"/>
			<point x="371" y="114"/>
			<point x="345" y="103"/>
			<point x="269" y="103" type="curve" smooth="yes"/>
			<point x="179" y="103"/>
			<point x="159" y="120"/>
			<point x="159" y="180" type="curve" smooth="yes"/>
			<point x="159" y="359" type="line"/>
			<point x="151" y="338" type="line"/>
			<point x="268" y="338" type="line" smooth="yes"/>
			<point x="399" y="338"/>
			<point x="450" y="376"/>
			<point x="450" y="514" type="curve" smooth="yes"/>
			<point x="450" y="647"/>
			<point x="396" y="691"/>
			<point x="247" y="691" type="curve" smooth="yes"/>
			<point x="108" y="691"/>
			<point x="54" y="659"/>
			<point x="54" y="578" type="curve" smooth="yes"/>
			<point x="54" y="540"/>
			<point x="66" y="512"/>
			<point x="93" y="512" type="curve" smooth="yes"/>
			<point x="98" y="512"/>
			<point x="105" y="513"/>
			<point x="110" y="515" type="curve"/>
			<point x="107" y="523"/>
			<point x="106" y="530"/>
			<point x="106" y="536" type="curve" smooth="yes"/>
			<point x="106" y="571"/>
			<point x="134" y="579"/>
			<point x="243" y="579" type="curve" smooth="yes"/>
			<point x="359" y="579"/>
			<point x="388" y="566"/>
			<point x="388" y="510" type="curve" smooth="yes"/>
			<point x="388" y="458"/>
			<point x="358" y="447"/>
			<point x="275" y="447" type="curve" smooth="yes"/>
			<point x="94" y="447" type="line"/>
			<point x="94" y="171" type="line" smooth="yes"/>
			<point x="94" y="46"/>
			<point x="144" y="-10"/>
		</contour>
	</outline>
	<anchor name="top" x="250" y="680"/>
</glyph>
<glyph name="i-hmnp" format="2">
	<unicode hex="1E126"/>
	<advance width="491"/>
	<outline>
		<contour>
			<point x="258" y="-10" type="curve" smooth="yes"/>
			<point x="370" y="-10"/>
			<point x="425" y="41"/>
			<point x="425" y="155" type="curve" smooth="yes"/>
			<point x="425" y="235"/>
			<point x="392" y="287"/>
			<point x="337" y="287" type="curve" smooth="yes"/>
			<point x="296" y="287"/>
			<point x="277" y="259"/>
			<point x="277" y="199" type="curve"/>
			<point x="345" y="199"/>
			<point x="366" y="188"/>
			<point x="366" y="157" type="curve" smooth="yes"/>
			<point x="366" y="119"/>
			<point x="339" y="108"/>
			<point x="261" y="108" type="curve" smooth="yes"/>
			<point x="164" y="108"/>
			<point x="143" y="125"/>
			<point x="143" y="192" type="curve" smooth="yes"/>
			<point x="143" y="503" type="line" smooth="yes"/>
			<point x="143" y="558"/>
			<point x="159" y="573"/>
			<point x="213" y="573" type="curve" smooth="yes"/>
			<point x="259" y="573"/>
			<point x="274" y="563"/>
			<point x="287" y="516" type="curve" smooth="yes"/>
			<point x="302" y="463" type="line" smooth="yes"/>
			<point x="316" y="415"/>
			<point x="336" y="392"/>
			<point x="375" y="392" type="curve" smooth="yes"/>
			<point x="420" y="392"/>
			<point x="441" y="424"/>
			<point x="441" y="483" type="curve"/>
			<point x="421" y="483" type="line" smooth="yes"/>
			<point x="374" y="483"/>
			<point x="362" y="495"/>
			<point x="350" y="535" type="curve" smooth="yes"/>
			<point x="331" y="600" type="line" smooth="yes"/>
			<point x="311" y="669"/>
			<point x="275" y="691"/>
			<point x="209" y="691" type="curve" smooth="yes"/>
			<point x="111" y="691"/>
			<point x="79" y="636"/>
			<point x="79" y="510" type="curve" smooth="yes"/>
			<point x="79" y="175" type="line" smooth="yes"/>
			<point x="79" y="48"/>
			<point x="130" y="-10"/>
		</contour>
	</outline>
	<anchor name="top" x="222" y="680"/>
</glyph>
<glyph name="u-hmnp" format="2">
	<unicode hex="1E127"/>
	<advance width="557"/>
	<outline>
		<contour>
			<point x="277" y="-10" type="curve" smooth="yes"/>
			<point x="435" y="-10"/>
			<point x="496" y="50"/>
			<point x="496" y="191" type="curve" smooth="yes"/>
			<point x="496" y="313"/>
			<point x="446" y="391"/>
			<point x="324" y="439" type="curve"/>
			<point x="324" y="443" type="line"/>
			<point x="472" y="574" type="line"/>
			<point x="472" y="680" type="line"/>
			<point x="94" y="680" type="line"/>
			<point x="69" y="612" type="line"/>
			<point x="69" y="567" type="line"/>
			<point x="367" y="567" type="line"/>
			<point x="367" y="563" type="line"/>
			<point x="249" y="457" type="line"/>
			<point x="249" y="339" type="line"/>
			<point x="386" y="300"/>
			<point x="434" y="259"/>
			<point x="434" y="190" type="curve" smooth="yes"/>
			<point x="434" y="126"/>
			<point x="393" y="108"/>
			<point x="274" y="108" type="curve" smooth="yes"/>
			<point x="158" y="108"/>
			<point x="115" y="118"/>
			<point x="115" y="158" type="curve" smooth="yes"/>
			<point x="115" y="188"/>
			<point x="139" y="199"/>
			<point x="206" y="199" type="curve"/>
			<point x="206" y="257"/>
			<point x="186" y="286"/>
			<point x="145" y="286" type="curve" smooth="yes"/>
			<point x="90" y="286"/>
			<point x="57" y="238"/>
			<point x="57" y="153" type="curve" smooth="yes"/>
			<point x="57" y="45"/>
			<point x="115" y="-10"/>
		</contour>
	</outline>
	<anchor name="top" x="269" y="680"/>
</glyph>
<glyph name="o-hmnp" format="2">
	<unicode hex="1E128"/>
	<advance width="658"/>
	<outline>
		<contour>
			<point x="228" y="-10" type="curve" smooth="yes"/>
			<point x="333" y="-10"/>
			<point x="377" y="44"/>
			<point x="377" y="177" type="curve" smooth="yes"/>
			<point x="377" y="504" type="line" smooth="yes"/>
			<point x="377" y="637"/>
			<point x="333" y="691"/>
			<point x="228" y="691" type="curve" smooth="yes"/>
			<point x="123" y="691"/>
			<point x="80" y="637"/>
			<point x="80" y="504" type="curve" smooth="yes"/>
			<point x="80" y="177" type="line" smooth="yes"/>
			<point x="80" y="44"/>
			<point x="123" y="-10"/>
		</contour>
		<contour>
			<point x="228" y="108" type="curve" smooth="yes"/>
			<point x="163" y="108"/>
			<point x="144" y="129"/>
			<point x="144" y="198" type="curve" smooth="yes"/>
			<point x="144" y="484" type="line" smooth="yes"/>
			<point x="144" y="552"/>
			<point x="163" y="573"/>
			<point x="228" y="573" type="curve" smooth="yes"/>
			<point x="293" y="573"/>
			<point x="312" y="552"/>
			<point x="312" y="484" type="curve" smooth="yes"/>
			<point x="312" y="198" type="line" smooth="yes"/>
			<point x="312" y="129"/>
			<point x="293" y="108"/>
		</contour>
		<contour>
			<point x="361" y="286" type="line"/>
			<point x="554" y="286" type="line"/>
			<point x="554" y="399" type="line"/>
			<point x="361" y="399" type="line"/>
		</contour>
		<contour>
			<point x="512" y="0" type="line"/>
			<point x="576" y="0" type="line"/>
			<point x="576" y="680" type="line"/>
			<point x="512" y="680" type="line"/>
		</contour>
	</outline>
	<anchor name="top" x="352" y="680"/>
</glyph>
<glyph name="oo-hmnp" format="2">
	<unicode hex="1E129"/>
	<advance width="556"/>
	<outline>
		<contour>
			<point x="287" y="-10" type="curve" smooth="yes"/>
			<point x="454" y="-10"/>
			<point x="497" y="50"/>
			<point x="497" y="188" type="curve" smooth="yes"/>
			<point x="497" y="326"/>
			<point x="451" y="383"/>
			<point x="321" y="383" type="curve" smooth="yes"/>
			<point x="215" y="383" type="line" smooth="yes"/>
			<point x="154" y="383"/>
			<point x="139" y="389"/>
			<point x="139" y="409" type="curve" smooth="yes"/>
			<point x="139" y="430"/>
			<point x="150" y="440"/>
			<point x="202" y="440" type="curve"/>
			<point x="202" y="518" type="line"/>
			<point x="149" y="518"/>
			<point x="139" y="526"/>
			<point x="139" y="544" type="curve" smooth="yes"/>
			<point x="139" y="567"/>
			<point x="151" y="579"/>
			<point x="286" y="579" type="curve" smooth="yes"/>
			<point x="416" y="579"/>
			<point x="432" y="570"/>
			<point x="432" y="542" type="curve" smooth="yes"/>
			<point x="432" y="517"/>
			<point x="411" y="512"/>
			<point x="351" y="512" type="curve"/>
			<point x="351" y="461"/>
			<point x="370" y="429"/>
			<point x="411" y="429" type="curve" smooth="yes"/>
			<point x="461" y="429"/>
			<point x="489" y="471"/>
			<point x="489" y="545" type="curve" smooth="yes"/>
			<point x="489" y="647"/>
			<point x="436" y="691"/>
			<point x="282" y="691" type="curve" smooth="yes"/>
			<point x="132" y="691"/>
			<point x="75" y="651"/>
			<point x="75" y="564" type="curve" smooth="yes"/>
			<point x="75" y="518"/>
			<point x="89" y="490"/>
			<point x="126" y="479" type="curve"/>
			<point x="126" y="474" type="line"/>
			<point x="89" y="463"/>
			<point x="75" y="431"/>
			<point x="75" y="386" type="curve" smooth="yes"/>
			<point x="75" y="307"/>
			<point x="117" y="270"/>
			<point x="227" y="270" type="curve" smooth="yes"/>
			<point x="314" y="270" type="line" smooth="yes"/>
			<point x="409" y="270"/>
			<point x="435" y="254"/>
			<point x="435" y="189" type="curve" smooth="yes"/>
			<point x="435" y="122"/>
			<point x="409" y="103"/>
			<point x="283" y="103" type="curve" smooth="yes"/>
			<point x="155" y="103"/>
			<point x="126" y="116"/>
			<point x="126" y="175" type="curve" smooth="yes"/>
			<point x="126" y="194"/>
			<point x="129" y="209"/>
			<point x="134" y="224" type="curve"/>
			<point x="127" y="227"/>
			<point x="123" y="228"/>
			<point x="115" y="228" type="curve" smooth="yes"/>
			<point x="87" y="228"/>
			<point x="66" y="191"/>
			<point x="66" y="135" type="curve" smooth="yes"/>
			<point x="66" y="33"/>
			<point x="127" y="-10"/>
		</contour>
	</outline>
	<anchor name="top" x="279" y="680"/>
</glyph>
<glyph name="e-hmnp" format="2">
	<unicode hex="1E12A"/>
	<advance width="519"/>
	<outline>
		<contour>
			<point x="143" y="0" type="line"/>
			<point x="207" y="0" type="line"/>
			<point x="207" y="17" type="line" smooth="yes"/>
			<point x="207" y="46"/>
			<point x="214" y="58"/>
			<point x="239" y="58" type="curve" smooth="yes"/>
			<point x="259" y="58"/>
			<point x="278" y="46"/>
			<point x="302" y="29" type="curve" smooth="yes"/>
			<point x="333" y="7"/>
			<point x="362" y="-10"/>
			<point x="402" y="-10" type="curve" smooth="yes"/>
			<point x="454" y="-10"/>
			<point x="482" y="28"/>
			<point x="482" y="86" type="curve" smooth="yes"/>
			<point x="482" y="141"/>
			<point x="464" y="175"/>
			<point x="434" y="175" type="curve" smooth="yes"/>
			<point x="429" y="175"/>
			<point x="424" y="174"/>
			<point x="419" y="172" type="curve"/>
			<point x="423" y="156"/>
			<point x="425" y="144"/>
			<point x="425" y="134" type="curve" smooth="yes"/>
			<point x="425" y="114"/>
			<point x="416" y="104"/>
			<point x="399" y="104" type="curve" smooth="yes"/>
			<point x="377" y="104"/>
			<point x="356" y="116"/>
			<point x="330" y="134" type="curve" smooth="yes"/>
			<point x="301" y="154"/>
			<point x="283" y="166"/>
			<point x="260" y="166" type="curve" smooth="yes"/>
			<point x="233" y="166"/>
			<point x="217" y="152"/>
			<point x="209" y="123" type="curve"/>
			<point x="204" y="123" type="line"/>
			<point x="206" y="168"/>
			<point x="207" y="194"/>
			<point x="207" y="237" type="curve" smooth="yes"/>
			<point x="207" y="312" type="line"/>
			<point x="424" y="312" type="line"/>
			<point x="449" y="378" type="line"/>
			<point x="449" y="423" type="line"/>
			<point x="207" y="423" type="line"/>
			<point x="207" y="680" type="line"/>
			<point x="63" y="680" type="line"/>
			<point x="38" y="612" type="line"/>
			<point x="38" y="567" type="line"/>
			<point x="143" y="567" type="line"/>
		</contour>
	</outline>
	<anchor name="top" x="260" y="680"/>
</glyph>
<glyph name="ee-hmnp" format="2">
	<unicode hex="1E12B"/>
	<advance width="488"/>
	<outline>
		<contour>
			<point x="259" y="-10" type="curve" smooth="yes"/>
			<point x="365" y="-10"/>
			<point x="412" y="42"/>
			<point x="412" y="186" type="curve" smooth="yes"/>
			<point x="412" y="368" type="line" smooth="yes"/>
			<point x="412" y="465"/>
			<point x="388" y="525"/>
			<point x="334" y="554" type="curve"/>
			<point x="334" y="558" type="line"/>
			<point x="408" y="585" type="line"/>
			<point x="408" y="680" type="line"/>
			<point x="66" y="680" type="line"/>
			<point x="41" y="612" type="line"/>
			<point x="41" y="567" type="line"/>
			<point x="97" y="567" type="line" smooth="yes"/>
			<point x="160" y="567"/>
			<point x="184" y="568"/>
			<point x="210" y="572" type="curve"/>
			<point x="210" y="567" type="line"/>
			<point x="137" y="527"/>
			<point x="106" y="461"/>
			<point x="106" y="353" type="curve" smooth="yes"/>
			<point x="106" y="186" type="line" smooth="yes"/>
			<point x="106" y="42"/>
			<point x="154" y="-10"/>
		</contour>
		<contour>
			<point x="259" y="108" type="curve" smooth="yes"/>
			<point x="191" y="108"/>
			<point x="170" y="134"/>
			<point x="170" y="206" type="curve" smooth="yes"/>
			<point x="170" y="362" type="line" smooth="yes"/>
			<point x="170" y="455"/>
			<point x="196" y="498"/>
			<point x="276" y="536" type="curve"/>
			<point x="332" y="502"/>
			<point x="348" y="462"/>
			<point x="348" y="361" type="curve" smooth="yes"/>
			<point x="348" y="206" type="line" smooth="yes"/>
			<point x="348" y="134"/>
			<point x="328" y="108"/>
		</contour>
	</outline>
	<anchor name="top" x="239" y="680"/>
</glyph>
<glyph name="w-hmnp" format="2">
	<unicode hex="1E12C"/>
	<advance width="553"/>
	<outline>
		<contour>
			<point x="279" y="-10" type="curve" smooth="yes"/>
			<point x="434" y="-10"/>
			<point x="498" y="47"/>
			<point x="498" y="183" type="curve" smooth="yes"/>
			<point x="498" y="264"/>
			<point x="473" y="337"/>
			<point x="395" y="371" type="curve"/>
			<point x="395" y="375" type="line"/>
			<point x="456" y="403"/>
			<point x="484" y="447"/>
			<point x="484" y="517" type="curve" smooth="yes"/>
			<point x="484" y="638"/>
			<point x="418" y="691"/>
			<point x="279" y="691" type="curve" smooth="yes"/>
			<point x="135" y="691"/>
			<point x="70" y="637"/>
			<point x="70" y="523" type="curve" smooth="yes"/>
			<point x="70" y="443"/>
			<point x="104" y="395"/>
			<point x="159" y="395" type="curve" smooth="yes"/>
			<point x="200" y="395"/>
			<point x="221" y="425"/>
			<point x="221" y="482" type="curve"/>
			<point x="151" y="482"/>
			<point x="129" y="495"/>
			<point x="129" y="524" type="curve" smooth="yes"/>
			<point x="129" y="561"/>
			<point x="165" y="573"/>
			<point x="278" y="573" type="curve" smooth="yes"/>
			<point x="382" y="573"/>
			<point x="420" y="556"/>
			<point x="420" y="501" type="curve" smooth="yes"/>
			<point x="420" y="453"/>
			<point x="386" y="423"/>
			<point x="306" y="398" type="curve"/>
			<point x="306" y="287" type="line"/>
			<point x="401" y="272"/>
			<point x="436" y="235"/>
			<point x="436" y="185" type="curve" smooth="yes"/>
			<point x="436" y="128"/>
			<point x="394" y="108"/>
			<point x="277" y="108" type="curve" smooth="yes"/>
			<point x="158" y="108"/>
			<point x="118" y="121"/>
			<point x="118" y="160" type="curve" smooth="yes"/>
			<point x="118" y="188"/>
			<point x="141" y="199"/>
			<point x="208" y="199" type="curve"/>
			<point x="208" y="257"/>
			<point x="189" y="286"/>
			<point x="147" y="286" type="curve" smooth="yes"/>
			<point x="92" y="286"/>
			<point x="59" y="238"/>
			<point x="59" y="154" type="curve" smooth="yes"/>
			<point x="59" y="44"/>
			<point x="114" y="-10"/>
		</contour>
	</outline>
	<anchor name="top" x="273" y="680"/>
</glyph>
<glyph name="bSomThw-hmnp" format="2">
  <unicode hex="1E130"/>
  <anchor x="-241" y="680" name="_top"/>
  <outline>
    <contour>
      <point x="-275" y="785" type="line"/>
      <point x="-206" y="785" type="line"/>
      <point x="-206" y="997" type="line"/>
      <point x="-275" y="997" type="line"/>
    </contour>
  </outline>
</glyph>
<glyph name="mSomThw-hmnp" format="2">
	<unicode hex="1E131"/>
	<outline>
		<contour>
			<point x="-400" y="801" type="line"/>
			<point x="-120" y="801" type="line"/>
			<point x="-120" y="875" type="line"/>
			<point x="-400" y="875" type="line"/>
		</contour>
		<contour>
			<point x="-260" y="924" type="curve" smooth="yes"/>
			<point x="-229" y="924"/>
			<point x="-207" y="944"/>
			<point x="-207" y="976" type="curve" smooth="yes"/>
			<point x="-207" y="1008"/>
			<point x="-229" y="1028"/>
			<point x="-260" y="1028" type="curve" smooth="yes"/>
			<point x="-290" y="1028"/>
			<point x="-312" y="1008"/>
			<point x="-312" y="976" type="curve" smooth="yes"/>
			<point x="-312" y="944"/>
			<point x="-290" y="924"/>
		</contour>
	</outline>
	<anchor name="_top" x="-260" y="680"/>
</glyph>
<glyph name="jSomThw-hmnp" format="2">
	<unicode hex="1E132"/>
	<outline>
		<contour>
			<point x="-263" y="777" type="curve" smooth="yes"/>
			<point x="-165" y="777"/>
			<point x="-121" y="829"/>
			<point x="-121" y="926" type="curve"/>
			<point x="-164" y="926" type="line"/>
			<point x="-167" y="877"/>
			<point x="-200" y="861"/>
			<point x="-263" y="861" type="curve" smooth="yes"/>
			<point x="-326" y="861"/>
			<point x="-359" y="877"/>
			<point x="-363" y="926" type="curve"/>
			<point x="-406" y="926" type="line"/>
			<point x="-406" y="829"/>
			<point x="-361" y="777"/>
		</contour>
	</outline>
	<anchor name="_top" x="-264" y="680"/>
</glyph>
<glyph name="vSomThw-hmnp" format="2">
	<unicode hex="1E133"/>
	<outline>
		<contour>
			<point x="-266" y="770" type="curve" smooth="yes"/>
			<point x="-207" y="770"/>
			<point x="-172" y="812"/>
			<point x="-172" y="876" type="curve" smooth="yes"/>
			<point x="-172" y="941"/>
			<point x="-207" y="983"/>
			<point x="-266" y="983" type="curve" smooth="yes"/>
			<point x="-325" y="983"/>
			<point x="-360" y="941"/>
			<point x="-360" y="876" type="curve" smooth="yes"/>
			<point x="-360" y="812"/>
			<point x="-325" y="770"/>
		</contour>
		<contour>
			<point x="-266" y="840" type="curve" smooth="yes"/>
			<point x="-302" y="840"/>
			<point x="-319" y="853"/>
			<point x="-319" y="876" type="curve" smooth="yes"/>
			<point x="-319" y="900"/>
			<point x="-302" y="913"/>
			<point x="-266" y="913" type="curve" smooth="yes"/>
			<point x="-230" y="913"/>
			<point x="-213" y="900"/>
			<point x="-213" y="876" type="curve" smooth="yes"/>
			<point x="-213" y="853"/>
			<point x="-230" y="840"/>
		</contour>
	</outline>
	<anchor name="_top" x="-266" y="680"/>
</glyph>
<glyph name="sSomThw-hmnp" format="2">
	<unicode hex="1E134"/>
	<outline>
		<contour>
			<point x="-402" y="801" type="line"/>
			<point x="-122" y="801" type="line"/>
			<point x="-122" y="875" type="line"/>
			<point x="-402" y="875" type="line"/>
		</contour>
	</outline>
	<anchor name="_top" x="-262" y="680"/>
</glyph>
<glyph name="gSomThw-hmnp" format="2">
	<unicode hex="1E135"/>
	<outline>
		<contour>
			<point x="-398" y="788" type="curve"/>
			<point x="-355" y="788" type="line"/>
			<point x="-352" y="837"/>
			<point x="-319" y="853"/>
			<point x="-256" y="853" type="curve" smooth="yes"/>
			<point x="-193" y="853"/>
			<point x="-160" y="837"/>
			<point x="-156" y="788" type="curve"/>
			<point x="-113" y="788" type="line"/>
			<point x="-113" y="885"/>
			<point x="-158" y="938"/>
			<point x="-256" y="938" type="curve" smooth="yes"/>
			<point x="-354" y="938"/>
			<point x="-398" y="885"/>
		</contour>
	</outline>
	<anchor name="_top" x="-256" y="680"/>
</glyph>
<glyph name="dSomThw-hmnp" format="2">
	<unicode hex="1E136"/>
	<outline>
		<contour>
			<point x="-260" y="770" type="curve" smooth="yes"/>
			<point x="-194" y="770"/>
			<point x="-159" y="808"/>
			<point x="-159" y="867" type="curve" smooth="yes"/>
			<point x="-159" y="921"/>
			<point x="-194" y="959"/>
			<point x="-260" y="959" type="curve" smooth="yes"/>
			<point x="-325" y="959"/>
			<point x="-360" y="921"/>
			<point x="-360" y="867" type="curve" smooth="yes"/>
			<point x="-360" y="808"/>
			<point x="-325" y="770"/>
		</contour>
		<contour>
			<point x="-260" y="837" type="curve" smooth="yes"/>
			<point x="-298" y="837"/>
			<point x="-319" y="844"/>
			<point x="-319" y="867" type="curve" smooth="yes"/>
			<point x="-319" y="889"/>
			<point x="-298" y="897"/>
			<point x="-260" y="897" type="curve" smooth="yes"/>
			<point x="-221" y="897"/>
			<point x="-200" y="889"/>
			<point x="-200" y="867" type="curve" smooth="yes"/>
			<point x="-200" y="844"/>
			<point x="-221" y="837"/>
		</contour>
		<contour>
			<point x="-288" y="930" type="line"/>
			<point x="-231" y="930" type="line"/>
			<point x="-231" y="1041" type="line"/>
			<point x="-288" y="1041" type="line"/>
		</contour>
	</outline>
	<anchor name="_top" x="-260" y="680"/>
</glyph>
<glyph name="oov-hmnp" format="2">
	<unicode hex="1E137"/>
	<advance width="457"/>
	<outline>
		<contour>
			<point x="316" y="342" type="line"/>
			<point x="380" y="342" type="line"/>
			<point x="380" y="532" type="line"/>
			<point x="316" y="532" type="line"/>
			<point x="288" y="491"/>
			<point x="252" y="475"/>
			<point x="198" y="475" type="curve" smooth="yes"/>
			<point x="143" y="475"/>
			<point x="121" y="490"/>
			<point x="121" y="523" type="curve" smooth="yes"/>
			<point x="121" y="561"/>
			<point x="170" y="592"/>
			<point x="301" y="592" type="curve" smooth="yes"/>
			<point x="379" y="592" type="line"/>
			<point x="379" y="659"/>
			<point x="340" y="691"/>
			<point x="252" y="691" type="curve" smooth="yes"/>
			<point x="135" y="691"/>
			<point x="58" y="635"/>
			<point x="58" y="524" type="curve" smooth="yes"/>
			<point x="58" y="432"/>
			<point x="104" y="387"/>
			<point x="192" y="387" type="curve" smooth="yes"/>
			<point x="248" y="387"/>
			<point x="295" y="408"/>
			<point x="313" y="454" type="curve"/>
			<point x="318" y="454" type="line"/>
			<point x="316" y="437"/>
			<point x="316" y="425"/>
			<point x="316" y="409" type="curve" smooth="yes"/>
		</contour>
	</outline>
</glyph>
<glyph name="pes-hmnp" format="2">
	<unicode hex="1E138"/>
	<advance width="420"/>
	<outline>
		<contour>
			<point x="273" y="342" type="line"/>
			<point x="337" y="342" type="line"/>
			<point x="337" y="680" type="line"/>
			<point x="273" y="680" type="line"/>
			<point x="271" y="584"/>
			<point x="229" y="531"/>
			<point x="77" y="531" type="curve" smooth="yes"/>
			<point x="52" y="531" type="line"/>
			<point x="52" y="474"/>
			<point x="70" y="435"/>
			<point x="139" y="435" type="curve" smooth="yes"/>
			<point x="196" y="435"/>
			<point x="249" y="462"/>
			<point x="272" y="529" type="curve"/>
			<point x="277" y="529" type="line"/>
			<point x="274" y="476"/>
			<point x="273" y="437"/>
			<point x="273" y="377" type="curve" smooth="yes"/>
		</contour>
	</outline>
</glyph>
<glyph name="khabTheeb-hmnp" format="2">
	<unicode hex="1E139"/>
	<advance width="420"/>
	<outline>
		<contour>
			<point x="83" y="342" type="line"/>
			<point x="147" y="342" type="line"/>
			<point x="148" y="438"/>
			<point x="190" y="491"/>
			<point x="343" y="491" type="curve" smooth="yes"/>
			<point x="367" y="491" type="line"/>
			<point x="367" y="548"/>
			<point x="350" y="587"/>
			<point x="281" y="587" type="curve" smooth="yes"/>
			<point x="223" y="587"/>
			<point x="170" y="560"/>
			<point x="148" y="492" type="curve"/>
			<point x="143" y="492" type="line"/>
			<point x="146" y="545"/>
			<point x="147" y="585"/>
			<point x="147" y="645" type="curve" smooth="yes"/>
			<point x="147" y="680" type="line"/>
			<point x="83" y="680" type="line"/>
		</contour>
	</outline>
</glyph>
<glyph name="khuamLuas-hmnp" format="2">
	<unicode hex="1E13A"/>
	<advance width="439"/>
	<outline>
		<contour>
			<point x="95" y="334" type="curve" smooth="yes"/>
			<point x="103" y="334"/>
			<point x="109" y="336"/>
			<point x="115" y="339" type="curve"/>
			<point x="112" y="349"/>
			<point x="111" y="362"/>
			<point x="111" y="373" type="curve" smooth="yes"/>
			<point x="111" y="432"/>
			<point x="129" y="462"/>
			<point x="219" y="462" type="curve" smooth="yes"/>
			<point x="309" y="462"/>
			<point x="328" y="432"/>
			<point x="328" y="373" type="curve" smooth="yes"/>
			<point x="328" y="362"/>
			<point x="327" y="349"/>
			<point x="324" y="339" type="curve"/>
			<point x="330" y="336"/>
			<point x="336" y="334"/>
			<point x="343" y="334" type="curve" smooth="yes"/>
			<point x="368" y="334"/>
			<point x="385" y="368"/>
			<point x="385" y="430" type="curve" smooth="yes"/>
			<point x="385" y="516"/>
			<point x="344" y="567"/>
			<point x="219" y="567" type="curve" smooth="yes"/>
			<point x="95" y="567"/>
			<point x="54" y="517"/>
			<point x="54" y="430" type="curve" smooth="yes"/>
			<point x="54" y="368"/>
			<point x="70" y="334"/>
		</contour>
		<contour>
			<point x="187" y="540" type="line"/>
			<point x="251" y="540" type="line"/>
			<point x="251" y="680" type="line"/>
			<point x="187" y="680" type="line"/>
		</contour>
	</outline>
</glyph>
<glyph name="poos-hmnp" format="2">
	<unicode hex="1E13B"/>
	<advance width="452"/>
	<outline>
		<contour>
			<point x="229" y="334" type="curve" smooth="yes"/>
			<point x="339" y="334"/>
			<point x="385" y="373"/>
			<point x="385" y="446" type="curve" smooth="yes"/>
			<point x="385" y="486"/>
			<point x="369" y="520"/>
			<point x="343" y="520" type="curve" smooth="yes"/>
			<point x="337" y="520"/>
			<point x="331" y="518"/>
			<point x="327" y="515" type="curve"/>
			<point x="330" y="504"/>
			<point x="331" y="495"/>
			<point x="331" y="487" type="curve" smooth="yes"/>
			<point x="331" y="450"/>
			<point x="308" y="436"/>
			<point x="230" y="436" type="curve" smooth="yes"/>
			<point x="154" y="436"/>
			<point x="131" y="450"/>
			<point x="131" y="471" type="curve" smooth="yes"/>
			<point x="131" y="488"/>
			<point x="144" y="503"/>
			<point x="169" y="519" type="curve" smooth="yes"/>
			<point x="205" y="542"/>
			<point x="265" y="563"/>
			<point x="376" y="593" type="curve"/>
			<point x="376" y="680" type="line"/>
			<point x="90" y="680" type="line"/>
			<point x="71" y="631" type="line"/>
			<point x="71" y="594" type="line"/>
			<point x="131" y="594" type="line" smooth="yes"/>
			<point x="149" y="594"/>
			<point x="179" y="595"/>
			<point x="214" y="597" type="curve"/>
			<point x="214" y="592" type="line"/>
			<point x="102" y="553"/>
			<point x="67" y="513"/>
			<point x="67" y="449" type="curve" smooth="yes"/>
			<point x="67" y="377"/>
			<point x="111" y="334"/>
		</contour>
	</outline>
</glyph>
<glyph name="xwXw-hmnp" format="2">
	<unicode hex="1E13C"/>
	<advance width="630"/>
	<outline>
		<contour>
			<point x="485" y="-226" type="line"/>
			<point x="549" y="-226" type="line"/>
			<point x="549" y="502" type="line" smooth="yes"/>
			<point x="549" y="648"/>
			<point x="499" y="691"/>
			<point x="413" y="691" type="curve" smooth="yes"/>
			<point x="352" y="691"/>
			<point x="315" y="665"/>
			<point x="300" y="604" type="curve"/>
			<point x="296" y="604" type="line"/>
			<point x="280" y="665"/>
			<point x="245" y="691"/>
			<point x="178" y="691" type="curve" smooth="yes"/>
			<point x="87" y="691"/>
			<point x="41" y="633"/>
			<point x="41" y="527" type="curve" smooth="yes"/>
			<point x="41" y="440"/>
			<point x="74" y="389"/>
			<point x="123" y="389" type="curve" smooth="yes"/>
			<point x="162" y="389"/>
			<point x="182" y="420"/>
			<point x="182" y="482" type="curve"/>
			<point x="121" y="482"/>
			<point x="100" y="493"/>
			<point x="100" y="526" type="curve" smooth="yes"/>
			<point x="100" y="560"/>
			<point x="122" y="573"/>
			<point x="184" y="573" type="curve" smooth="yes"/>
			<point x="247" y="573"/>
			<point x="267" y="555"/>
			<point x="267" y="491" type="curve" smooth="yes"/>
			<point x="267" y="439" type="line"/>
			<point x="331" y="439" type="line"/>
			<point x="331" y="491" type="line" smooth="yes"/>
			<point x="331" y="554"/>
			<point x="349" y="573"/>
			<point x="405" y="573" type="curve" smooth="yes"/>
			<point x="467" y="573"/>
			<point x="485" y="557"/>
			<point x="485" y="489" type="curve" smooth="yes"/>
		</contour>
	</outline>
</glyph>
<glyph name="khuSaim-hmnp" format="2">
	<unicode hex="1E13D"/>
	<advance width="690"/>
	<outline>
		<contour>
			<point x="83" y="0" type="line"/>
			<point x="358" y="0" type="line"/>
			<point x="358" y="222" type="line" smooth="yes"/>
			<point x="358" y="290"/>
			<point x="376" y="313"/>
			<point x="441" y="313" type="curve" smooth="yes"/>
			<point x="505" y="313"/>
			<point x="524" y="290"/>
			<point x="524" y="222" type="curve" smooth="yes"/>
			<point x="524" y="0" type="line"/>
			<point x="634" y="0" type="line"/>
			<point x="658" y="70" type="line"/>
			<point x="658" y="113" type="line"/>
			<point x="588" y="113" type="line"/>
			<point x="588" y="244" type="line" smooth="yes"/>
			<point x="588" y="376"/>
			<point x="544" y="430"/>
			<point x="441" y="430" type="curve" smooth="yes"/>
			<point x="337" y="430"/>
			<point x="294" y="376"/>
			<point x="294" y="244" type="curve" smooth="yes"/>
			<point x="294" y="113" type="line"/>
			<point x="147" y="113" type="line"/>
			<point x="147" y="680" type="line"/>
			<point x="83" y="680" type="line"/>
		</contour>
	</outline>
</glyph>
<glyph name="zero-hmnp" format="2">
	<unicode hex="1E140"/>
	<advance width="599"/>
	<outline>
		<contour>
			<point x="300" y="-10" type="curve" smooth="yes"/>
			<point x="468" y="-10"/>
			<point x="523" y="48"/>
			<point x="523" y="207" type="curve" smooth="yes"/>
			<point x="523" y="474" type="line" smooth="yes"/>
			<point x="523" y="633"/>
			<point x="468" y="691"/>
			<point x="300" y="691" type="curve" smooth="yes"/>
			<point x="133" y="691"/>
			<point x="76" y="633"/>
			<point x="76" y="474" type="curve" smooth="yes"/>
			<point x="76" y="207" type="line" smooth="yes"/>
			<point x="76" y="48"/>
			<point x="133" y="-10"/>
		</contour>
		<contour>
			<point x="300" y="108" type="curve" smooth="yes"/>
			<point x="175" y="108"/>
			<point x="140" y="132"/>
			<point x="140" y="224" type="curve" smooth="yes"/>
			<point x="140" y="457" type="line" smooth="yes"/>
			<point x="140" y="549"/>
			<point x="175" y="573"/>
			<point x="300" y="573" type="curve" smooth="yes"/>
			<point x="426" y="573"/>
			<point x="459" y="549"/>
			<point x="459" y="457" type="curve" smooth="yes"/>
			<point x="459" y="224" type="line" smooth="yes"/>
			<point x="459" y="132"/>
			<point x="426" y="108"/>
		</contour>
	</outline>
</glyph>
<glyph name="one-hmnp" format="2">
	<unicode hex="1E141"/>
	<advance width="230"/>
	<outline>
		<contour>
			<point x="83" y="0" type="line"/>
			<point x="147" y="0" type="line"/>
			<point x="147" y="680" type="line"/>
			<point x="83" y="680" type="line"/>
		</contour>
	</outline>
</glyph>
<glyph name="two-hmnp" format="2">
	<unicode hex="1E142"/>
	<advance width="466"/>
	<outline>
		<contour>
			<point x="331" y="0" type="line"/>
			<point x="395" y="0" type="line"/>
			<point x="395" y="409" type="line"/>
			<point x="136" y="409" type="line"/>
			<point x="136" y="680" type="line"/>
			<point x="71" y="680" type="line"/>
			<point x="71" y="294" type="line"/>
			<point x="331" y="294" type="line"/>
		</contour>
	</outline>
</glyph>
<glyph name="three-hmnp" format="2">
	<unicode hex="1E143"/>
	<advance width="622"/>
	<outline>
		<contour>
			<point x="279" y="0" type="line"/>
			<point x="343" y="0" type="line"/>
			<point x="343" y="499" type="line" smooth="yes"/>
			<point x="343" y="561"/>
			<point x="362" y="578"/>
			<point x="431" y="578" type="curve" smooth="yes"/>
			<point x="494" y="578"/>
			<point x="514" y="566"/>
			<point x="514" y="533" type="curve" smooth="yes"/>
			<point x="514" y="502"/>
			<point x="494" y="492"/>
			<point x="429" y="492" type="curve"/>
			<point x="429" y="434"/>
			<point x="450" y="402"/>
			<point x="491" y="402" type="curve" smooth="yes"/>
			<point x="540" y="402"/>
			<point x="573" y="450"/>
			<point x="573" y="535" type="curve" smooth="yes"/>
			<point x="573" y="631"/>
			<point x="529" y="691"/>
			<point x="438" y="691" type="curve" smooth="yes"/>
			<point x="374" y="691"/>
			<point x="333" y="662"/>
			<point x="313" y="603" type="curve"/>
			<point x="308" y="603" type="line"/>
			<point x="288" y="662"/>
			<point x="248" y="691"/>
			<point x="184" y="691" type="curve" smooth="yes"/>
			<point x="94" y="691"/>
			<point x="48" y="631"/>
			<point x="48" y="535" type="curve" smooth="yes"/>
			<point x="48" y="450"/>
			<point x="83" y="402"/>
			<point x="132" y="402" type="curve" smooth="yes"/>
			<point x="172" y="402"/>
			<point x="193" y="434"/>
			<point x="193" y="492" type="curve"/>
			<point x="128" y="492"/>
			<point x="107" y="502"/>
			<point x="107" y="533" type="curve" smooth="yes"/>
			<point x="107" y="566"/>
			<point x="128" y="578"/>
			<point x="190" y="578" type="curve" smooth="yes"/>
			<point x="260" y="578"/>
			<point x="279" y="561"/>
			<point x="279" y="499" type="curve" smooth="yes"/>
		</contour>
		<contour>
			<point x="131" y="209" type="line"/>
			<point x="466" y="209" type="line"/>
			<point x="491" y="276" type="line"/>
			<point x="491" y="319" type="line"/>
			<point x="156" y="319" type="line"/>
			<point x="131" y="253" type="line"/>
		</contour>
	</outline>
</glyph>
<glyph name="four-hmnp" format="2">
	<unicode hex="1E144"/>
	<advance width="590"/>
	<outline>
		<contour>
			<point x="298" y="-10" type="curve" smooth="yes"/>
			<point x="453" y="-10"/>
			<point x="509" y="49"/>
			<point x="509" y="208" type="curve" smooth="yes"/>
			<point x="509" y="680" type="line"/>
			<point x="84" y="680" type="line"/>
			<point x="84" y="475" type="line"/>
			<point x="131" y="475" type="line"/>
			<point x="139" y="530" type="line" smooth="yes"/>
			<point x="143" y="560"/>
			<point x="150" y="567"/>
			<point x="179" y="567" type="curve" smooth="yes"/>
			<point x="445" y="567" type="line"/>
			<point x="445" y="225" type="line" smooth="yes"/>
			<point x="445" y="132"/>
			<point x="416" y="108"/>
			<point x="298" y="108" type="curve" smooth="yes"/>
			<point x="173" y="108"/>
			<point x="124" y="127"/>
			<point x="124" y="181" type="curve" smooth="yes"/>
			<point x="124" y="231"/>
			<point x="165" y="249"/>
			<point x="268" y="249" type="curve"/>
			<point x="268" y="312"/>
			<point x="243" y="341"/>
			<point x="191" y="341" type="curve" smooth="yes"/>
			<point x="114" y="341"/>
			<point x="65" y="282"/>
			<point x="65" y="177" type="curve" smooth="yes"/>
			<point x="65" y="44"/>
			<point x="131" y="-10"/>
		</contour>
	</outline>
</glyph>
<glyph name="five-hmnp" format="2">
	<unicode hex="1E145"/>
	<advance width="634"/>
	<outline>
		<contour>
			<point x="282" y="0" type="line"/>
			<point x="352" y="0" type="line"/>
			<point x="496" y="547" type="line"/>
			<point x="603" y="547" type="line"/>
			<point x="603" y="597" type="line"/>
			<point x="581" y="680" type="line"/>
			<point x="462" y="680" type="line"/>
			<point x="321" y="123" type="line"/>
			<point x="315" y="123" type="line"/>
			<point x="174" y="680" type="line"/>
			<point x="53" y="680" type="line"/>
			<point x="32" y="597" type="line"/>
			<point x="32" y="547" type="line"/>
			<point x="139" y="547" type="line"/>
		</contour>
	</outline>
</glyph>
<glyph name="six-hmnp" format="2">
	<unicode hex="1E146"/>
	<advance width="548"/>
	<outline>
		<contour>
			<point x="403" y="0" type="line"/>
			<point x="467" y="0" type="line"/>
			<point x="467" y="486" type="line" smooth="yes"/>
			<point x="467" y="635"/>
			<point x="408" y="691"/>
			<point x="259" y="691" type="curve" smooth="yes"/>
			<point x="120" y="691"/>
			<point x="57" y="639"/>
			<point x="57" y="523" type="curve" smooth="yes"/>
			<point x="57" y="441"/>
			<point x="95" y="392"/>
			<point x="149" y="392" type="curve" smooth="yes"/>
			<point x="191" y="392"/>
			<point x="210" y="421"/>
			<point x="210" y="482" type="curve"/>
			<point x="139" y="482"/>
			<point x="116" y="492"/>
			<point x="116" y="523" type="curve" smooth="yes"/>
			<point x="116" y="560"/>
			<point x="152" y="573"/>
			<point x="258" y="573" type="curve" smooth="yes"/>
			<point x="376" y="573"/>
			<point x="403" y="555"/>
			<point x="403" y="476" type="curve" smooth="yes"/>
			<point x="403" y="278" type="line" smooth="yes"/>
			<point x="403" y="203"/>
			<point x="403" y="191"/>
			<point x="406" y="155" type="curve"/>
			<point x="401" y="155" type="line"/>
			<point x="378" y="234"/>
			<point x="284" y="291"/>
			<point x="168" y="291" type="curve" smooth="yes"/>
			<point x="81" y="291"/>
			<point x="57" y="255"/>
			<point x="57" y="175" type="curve"/>
			<point x="82" y="175" type="line" smooth="yes"/>
			<point x="318" y="175"/>
			<point x="403" y="133"/>
			<point x="403" y="21" type="curve" smooth="yes"/>
		</contour>
	</outline>
</glyph>
<glyph name="seven-hmnp" format="2">
	<unicode hex="1E147"/>
	<advance width="602"/>
	<outline>
		<contour>
			<point x="316" y="-10" type="curve" smooth="yes"/>
			<point x="479" y="-10"/>
			<point x="546" y="45"/>
			<point x="546" y="190" type="curve" smooth="yes"/>
			<point x="546" y="293"/>
			<point x="511" y="350"/>
			<point x="425" y="375" type="curve"/>
			<point x="425" y="381" type="line"/>
			<point x="491" y="405"/>
			<point x="523" y="453"/>
			<point x="523" y="533" type="curve" smooth="yes"/>
			<point x="523" y="632"/>
			<point x="475" y="691"/>
			<point x="392" y="691" type="curve" smooth="yes"/>
			<point x="329" y="691"/>
			<point x="297" y="654"/>
			<point x="297" y="581" type="curve"/>
			<point x="418" y="581"/>
			<point x="459" y="564"/>
			<point x="459" y="513" type="curve" smooth="yes"/>
			<point x="459" y="460"/>
			<point x="412" y="428"/>
			<point x="306" y="407" type="curve"/>
			<point x="306" y="293" type="line"/>
			<point x="438" y="279"/>
			<point x="483" y="254"/>
			<point x="483" y="191" type="curve" smooth="yes"/>
			<point x="483" y="130"/>
			<point x="440" y="108"/>
			<point x="314" y="108" type="curve" smooth="yes"/>
			<point x="181" y="108"/>
			<point x="145" y="132"/>
			<point x="145" y="221" type="curve" smooth="yes"/>
			<point x="145" y="680" type="line"/>
			<point x="81" y="680" type="line"/>
			<point x="81" y="209" type="line" smooth="yes"/>
			<point x="81" y="46"/>
			<point x="141" y="-10"/>
		</contour>
	</outline>
</glyph>
<glyph name="eight-hmnp" format="2">
	<unicode hex="1E148"/>
	<advance width="575"/>
	<outline>
		<contour>
			<point x="316" y="-10" type="curve" smooth="yes"/>
			<point x="443" y="-10"/>
			<point x="495" y="32"/>
			<point x="495" y="137" type="curve" smooth="yes"/>
			<point x="495" y="214"/>
			<point x="466" y="258"/>
			<point x="418" y="258" type="curve" smooth="yes"/>
			<point x="378" y="258"/>
			<point x="358" y="228"/>
			<point x="358" y="173" type="curve"/>
			<point x="417" y="173"/>
			<point x="436" y="166"/>
			<point x="436" y="142" type="curve" smooth="yes"/>
			<point x="436" y="113"/>
			<point x="409" y="103"/>
			<point x="313" y="103" type="curve" smooth="yes"/>
			<point x="212" y="103"/>
			<point x="184" y="117"/>
			<point x="184" y="172" type="curve" smooth="yes"/>
			<point x="184" y="246"/>
			<point x="250" y="298"/>
			<point x="399" y="328" type="curve"/>
			<point x="399" y="421" type="line"/>
			<point x="307" y="421" type="line" smooth="yes"/>
			<point x="157" y="421"/>
			<point x="115" y="438"/>
			<point x="115" y="498" type="curve" smooth="yes"/>
			<point x="115" y="557"/>
			<point x="154" y="575"/>
			<point x="299" y="575" type="curve" smooth="yes"/>
			<point x="437" y="575"/>
			<point x="472" y="559"/>
			<point x="472" y="506" type="curve" smooth="yes"/>
			<point x="472" y="493"/>
			<point x="470" y="480"/>
			<point x="466" y="467" type="curve"/>
			<point x="471" y="465"/>
			<point x="478" y="463"/>
			<point x="484" y="463" type="curve" smooth="yes"/>
			<point x="512" y="463"/>
			<point x="530" y="498"/>
			<point x="530" y="551" type="curve" smooth="yes"/>
			<point x="530" y="646"/>
			<point x="458" y="691"/>
			<point x="296" y="691" type="curve" smooth="yes"/>
			<point x="120" y="691"/>
			<point x="53" y="640"/>
			<point x="53" y="506" type="curve" smooth="yes"/>
			<point x="53" y="401"/>
			<point x="97" y="347"/>
			<point x="218" y="327" type="curve"/>
			<point x="218" y="323" type="line"/>
			<point x="152" y="286"/>
			<point x="120" y="229"/>
			<point x="120" y="150" type="curve" smooth="yes"/>
			<point x="120" y="40"/>
			<point x="176" y="-10"/>
		</contour>
	</outline>
</glyph>
<glyph name="nine-hmnp" format="2">
	<unicode hex="1E149"/>
	<advance width="639"/>
	<outline>
		<contour>
			<point x="402" y="0" type="curve"/>
			<point x="473" y="0" type="line"/>
			<point x="605" y="680" type="line"/>
			<point x="540" y="680" type="line"/>
			<point x="433" y="128" type="line"/>
			<point x="429" y="126" type="line"/>
			<point x="336" y="189"/>
			<point x="265" y="226"/>
			<point x="191" y="256" type="curve"/>
			<point x="191" y="261" type="line"/>
			<point x="314" y="304"/>
			<point x="369" y="377"/>
			<point x="369" y="504" type="curve" smooth="yes"/>
			<point x="369" y="630"/>
			<point x="316" y="691"/>
			<point x="210" y="691" type="curve" smooth="yes"/>
			<point x="110" y="691"/>
			<point x="56" y="637"/>
			<point x="56" y="536" type="curve" smooth="yes"/>
			<point x="56" y="456"/>
			<point x="89" y="406"/>
			<point x="143" y="406" type="curve" smooth="yes"/>
			<point x="183" y="406"/>
			<point x="204" y="436"/>
			<point x="204" y="493" type="curve"/>
			<point x="137" y="493"/>
			<point x="115" y="502"/>
			<point x="115" y="532" type="curve" smooth="yes"/>
			<point x="115" y="562"/>
			<point x="137" y="576"/>
			<point x="206" y="576" type="curve" smooth="yes"/>
			<point x="283" y="576"/>
			<point x="304" y="557"/>
			<point x="304" y="494" type="curve" smooth="yes"/>
			<point x="304" y="388"/>
			<point x="242" y="333"/>
			<point x="80" y="287" type="curve"/>
			<point x="80" y="180" type="line"/>
			<point x="186" y="141"/>
			<point x="285" y="89"/>
		</contour>
	</outline>
</glyph>
<glyph name="nyaj-hmnp" format="2">
	<unicode hex="1E14E"/>
	<advance width="695"/>
	<outline>
		<contour>
			<point x="221" y="-10" type="curve" smooth="yes"/>
			<point x="316" y="-10"/>
			<point x="360" y="47"/>
			<point x="360" y="148" type="curve" smooth="yes"/>
			<point x="360" y="234"/>
			<point x="328" y="289"/>
			<point x="276" y="289" type="curve" smooth="yes"/>
			<point x="238" y="289"/>
			<point x="218" y="260"/>
			<point x="218" y="199" type="curve"/>
			<point x="279" y="199"/>
			<point x="301" y="187"/>
			<point x="301" y="155" type="curve" smooth="yes"/>
			<point x="301" y="122"/>
			<point x="277" y="108"/>
			<point x="222" y="108" type="curve" smooth="yes"/>
			<point x="162" y="108"/>
			<point x="144" y="123"/>
			<point x="144" y="177" type="curve" smooth="yes"/>
			<point x="144" y="489" type="line" smooth="yes"/>
			<point x="144" y="553"/>
			<point x="162" y="573"/>
			<point x="228" y="573" type="curve" smooth="yes"/>
			<point x="280" y="573"/>
			<point x="305" y="561"/>
			<point x="328" y="501" type="curve" smooth="yes"/>
			<point x="518" y="0" type="line"/>
			<point x="613" y="0" type="line"/>
			<point x="613" y="824" type="line"/>
			<point x="549" y="824" type="line"/>
			<point x="549" y="103" type="line"/>
			<point x="383" y="541" type="line" smooth="yes"/>
			<point x="337" y="662"/>
			<point x="300" y="691"/>
			<point x="222" y="691" type="curve" smooth="yes"/>
			<point x="122" y="691"/>
			<point x="80" y="641"/>
			<point x="80" y="493" type="curve" smooth="yes"/>
			<point x="80" y="169" type="line" smooth="yes"/>
			<point x="80" y="46"/>
			<point x="125" y="-10"/>
		</contour>
	</outline>
</glyph>
<glyph name="circledCa-hmnp" format="2">
	<unicode hex="1E14F"/>
	<advance width="810"/>
	<outline>
		<contour>
			<point x="405" y="-10" type="curve" smooth="yes"/>
			<point x="614" y="-10"/>
			<point x="750" y="130"/>
			<point x="750" y="345" type="curve" smooth="yes"/>
			<point x="750" y="560"/>
			<point x="614" y="700"/>
			<point x="405" y="700" type="curve" smooth="yes"/>
			<point x="196" y="700"/>
			<point x="60" y="560"/>
			<point x="60" y="345" type="curve" smooth="yes"/>
			<point x="60" y="130"/>
			<point x="196" y="-10"/>
		</contour>
		<contour>
			<point x="345" y="138" type="curve" smooth="yes"/>
			<point x="421" y="138"/>
			<point x="448" y="177"/>
			<point x="448" y="290" type="curve" smooth="yes"/>
			<point x="448" y="397"/>
			<point x="419" y="438"/>
			<point x="345" y="438" type="curve" smooth="yes"/>
			<point x="295" y="438" type="line"/>
			<point x="295" y="542" type="line"/>
			<point x="252" y="542" type="line"/>
			<point x="252" y="356" type="line"/>
			<point x="347" y="356" type="line" smooth="yes"/>
			<point x="393" y="356"/>
			<point x="404" y="342"/>
			<point x="404" y="285" type="curve" smooth="yes"/>
			<point x="404" y="231"/>
			<point x="394" y="222"/>
			<point x="344" y="222" type="curve" smooth="yes"/>
			<point x="292" y="222"/>
			<point x="279" y="227"/>
			<point x="279" y="246" type="curve" smooth="yes"/>
			<point x="279" y="263"/>
			<point x="290" y="268"/>
			<point x="335" y="268" type="curve"/>
			<point x="335" y="305"/>
			<point x="322" y="323"/>
			<point x="297" y="323" type="curve" smooth="yes"/>
			<point x="262" y="323"/>
			<point x="241" y="295"/>
			<point x="241" y="242" type="curve" smooth="yes"/>
			<point x="241" y="172"/>
			<point x="273" y="138"/>
		</contour>
		<contour>
			<point x="405" y="52" type="curve" smooth="yes"/>
			<point x="231" y="52"/>
			<point x="120" y="166"/>
			<point x="120" y="345" type="curve" smooth="yes"/>
			<point x="120" y="524"/>
			<point x="231" y="638"/>
			<point x="405" y="638" type="curve" smooth="yes"/>
			<point x="579" y="638"/>
			<point x="690" y="524"/>
			<point x="690" y="345" type="curve" smooth="yes"/>
			<point x="690" y="166"/>
			<point x="579" y="52"/>
		</contour>
		<contour>
			<point x="518" y="143" type="line"/>
			<point x="561" y="143" type="line"/>
			<point x="561" y="439" type="line" smooth="yes"/>
			<point x="561" y="520"/>
			<point x="531" y="556"/>
			<point x="463" y="556" type="curve" smooth="yes"/>
			<point x="396" y="556"/>
			<point x="369" y="523"/>
			<point x="369" y="439" type="curve" smooth="yes"/>
			<point x="369" y="394" type="line"/>
			<point x="408" y="394" type="line"/>
			<point x="408" y="430" type="line" smooth="yes"/>
			<point x="408" y="461"/>
			<point x="424" y="472"/>
			<point x="462" y="472" type="curve" smooth="yes"/>
			<point x="503" y="472"/>
			<point x="518" y="460"/>
			<point x="518" y="425" type="curve" smooth="yes"/>
		</contour>
	</outline>
</glyph>
